<?xml version="1.0" standalone="no"?>
<!DOCTYPE svg PUBLIC "-//W3C//DTD SVG 20010904//EN"
 "http://www.w3.org/TR/2001/REC-SVG-20010904/DTD/svg10.dtd">
<svg version="1.0" xmlns="http://www.w3.org/2000/svg"
 width="512.000000pt" height="512.000000pt" viewBox="0 0 512.000000 512.000000"
 preserveAspectRatio="xMidYMid meet">
<metadata>
Created by potrace 1.11, written by Peter Selinger 2001-2013
</metadata>
<g transform="translate(0.000000,512.000000) scale(0.100000,-0.100000)"
fill="#000000" stroke="none">
<path d="M2115 5092 c1 -15 -3 -31 -9 -35 -7 -6 -6 -7 4 -5 14 4 23 55 10 63
-4 2 -6 -8 -5 -23z"/>
<path d="M2189 5103 c-13 -16 -12 -17 4 -4 9 7 17 15 17 17 0 8 -8 3 -21 -13z"/>
<path d="M2396 5103 c-6 -14 -5 -15 5 -6 7 7 10 15 7 18 -3 3 -9 -2 -12 -12z"/>
<path d="M2495 5110 c-4 -6 1 -7 11 -3 13 5 15 3 9 -7 -5 -9 -4 -11 4 -6 6 4
9 12 6 17 -8 12 -22 12 -30 -1z"/>
<path d="M2909 5103 c-13 -16 -12 -17 4 -4 16 13 21 21 13 21 -2 0 -10 -8 -17
-17z"/>
<path d="M954 5096 c1 -8 5 -18 8 -22 4 -3 5 1 4 10 -1 8 -5 18 -8 22 -4 3 -5
-1 -4 -10z"/>
<path d="M1006 5098 c3 -5 10 -6 15 -3 13 9 11 12 -6 12 -8 0 -12 -4 -9 -9z"/>
<path d="M1250 5100 c0 -5 5 -10 11 -10 5 0 7 5 4 10 -3 6 -8 10 -11 10 -2 0
-4 -4 -4 -10z"/>
<path d="M1910 5102 c0 -5 7 -9 15 -9 8 0 12 4 9 9 -3 4 -9 8 -15 8 -5 0 -9
-4 -9 -8z"/>
<path d="M2147 5099 c7 -7 15 -10 18 -7 3 3 -2 9 -12 12 -14 6 -15 5 -6 -5z"/>
<path d="M2710 5103 c1 -13 30 -48 30 -36 0 7 -5 15 -10 18 -6 4 -8 11 -5 16
4 5 1 9 -4 9 -6 0 -11 -3 -11 -7z"/>
<path d="M3576 5098 c3 -5 10 -6 15 -3 13 9 11 12 -6 12 -8 0 -12 -4 -9 -9z"/>
<path d="M3635 5099 c-3 -4 2 -6 10 -5 21 3 28 13 10 13 -9 0 -18 -4 -20 -8z"/>
<path d="M3696 5098 c3 -5 10 -6 15 -3 13 9 11 12 -6 12 -8 0 -12 -4 -9 -9z"/>
<path d="M2448 5093 c-10 -2 -18 -9 -18 -14 0 -6 8 -5 20 1 11 6 20 13 20 15
0 3 -1 4 -2 4 -2 -1 -11 -3 -20 -6z"/>
<path d="M2577 5080 c-3 -13 3 -24 20 -35 14 -9 27 -15 29 -12 2 2 -7 9 -20
16 -16 9 -22 19 -19 32 3 10 3 19 0 19 -2 0 -7 -9 -10 -20z"/>
<path d="M2788 5093 c7 -3 16 -2 19 1 4 3 -2 6 -13 5 -11 0 -14 -3 -6 -6z"/>
<path d="M2929 5088 c-8 -7 -12 -12 -10 -11 2 2 9 -1 15 -7 8 -6 12 -3 12 11
0 10 -1 19 -1 19 -1 0 -8 -6 -16 -12z"/>
<path d="M900 5080 c-9 -6 -10 -10 -3 -10 6 0 15 5 18 10 8 12 4 12 -15 0z"/>
<path d="M1376 5082 c-3 -5 1 -9 9 -9 8 0 12 4 9 9 -3 4 -7 8 -9 8 -2 0 -6 -4
-9 -8z"/>
<path d="M1744 5082 c4 -3 14 -7 22 -8 9 -1 13 0 10 4 -4 3 -14 7 -22 8 -9 1
-13 0 -10 -4z"/>
<path d="M1873 5072 c-8 -14 -8 -19 1 -19 7 0 13 9 13 19 1 10 1 18 0 18 -1 0
-7 -8 -14 -18z"/>
<path d="M2013 5073 c0 -9 4 -10 12 -3 7 5 15 7 18 3 4 -3 7 -1 7 5 0 6 -8 10
-18 9 -10 0 -19 -7 -19 -14z"/>
<path d="M2342 5082 c-8 -6 -2 -9 18 -9 20 0 26 3 18 9 -7 4 -15 8 -18 8 -3 0
-11 -4 -18 -8z"/>
<path d="M2830 5074 c0 -9 -5 -12 -12 -8 -7 4 -8 3 -4 -4 9 -16 36 -3 29 14
-7 18 -13 18 -13 -2z"/>
<path d="M3069 5077 c6 -8 9 -16 6 -19 -3 -2 2 -5 10 -5 13 0 13 3 -2 19 -19
21 -31 25 -14 5z"/>
<path d="M3106 5078 c3 -4 9 -8 15 -8 5 0 9 4 9 8 0 5 -7 9 -15 9 -8 0 -12 -4
-9 -9z"/>
<path d="M3813 5071 c0 -11 5 -18 9 -15 4 3 5 11 1 19 -7 21 -12 19 -10 -4z"/>
<path d="M2275 5069 c-4 -6 -5 -12 -2 -15 2 -3 7 2 10 11 7 17 1 20 -8 4z"/>
<path d="M2615 5071 c-6 -11 13 -26 22 -17 4 3 1 6 -6 6 -7 0 -9 5 -6 10 3 6
4 10 1 10 -3 0 -7 -4 -11 -9z"/>
<path d="M2688 5073 c6 -2 9 -10 6 -15 -4 -7 -2 -8 5 -4 13 9 5 26 -12 25 -9
0 -8 -2 1 -6z"/>
<path d="M1950 5066 c0 -2 7 -7 16 -10 8 -3 12 -2 9 4 -6 10 -25 14 -25 6z"/>
<path d="M2189 5054 c6 -12 7 -24 3 -28 -3 -4 1 -4 11 0 9 3 17 11 17 17 0 6
-3 7 -7 4 -3 -4 -12 1 -20 11 -13 15 -13 15 -4 -4z"/>
<path d="M2293 5058 c-3 -6 -1 -8 5 -4 5 3 12 2 14 -4 2 -5 9 -6 16 -1 10 6 9
10 -7 14 -12 3 -24 0 -28 -5z"/>
<path d="M2510 5060 c0 -5 7 -7 15 -4 8 4 15 8 15 10 0 2 -7 4 -15 4 -8 0 -15
-4 -15 -10z"/>
<path d="M2654 5058 c-4 -7 -4 -10 1 -6 4 4 14 0 21 -10 7 -9 14 -15 17 -12 2
3 -4 13 -13 23 -14 15 -20 16 -26 5z"/>
<path d="M2750 5059 c0 -5 5 -7 10 -4 6 3 10 8 10 11 0 2 -4 4 -10 4 -5 0 -10
-5 -10 -11z"/>
<path d="M2956 5053 c-6 -14 -5 -15 5 -6 7 7 10 15 7 18 -3 3 -9 -2 -12 -12z"/>
<path d="M3024 5062 c4 -3 14 -7 22 -8 9 -1 13 0 10 4 -4 3 -14 7 -22 8 -9 1
-13 0 -10 -4z"/>
<path d="M3570 5059 c0 -5 5 -7 10 -4 6 3 10 8 10 11 0 2 -4 4 -10 4 -5 0 -10
-5 -10 -11z"/>
<path d="M1395 5049 c-4 -6 -5 -12 -2 -15 2 -3 7 2 10 11 7 17 1 20 -8 4z"/>
<path d="M1633 5047 c0 -7 13 -13 29 -14 28 -1 33 7 6 11 -7 1 -18 5 -24 8 -6
4 -11 2 -11 -5z"/>
<path d="M1774 5040 c0 -13 4 -16 10 -10 7 7 7 13 0 20 -6 6 -10 3 -10 -10z"/>
<path d="M1936 5047 c3 -10 9 -15 12 -12 3 3 0 11 -7 18 -10 9 -11 8 -5 -6z"/>
<path d="M1993 5045 c0 -8 4 -12 9 -9 5 3 6 10 3 15 -9 13 -12 11 -12 -6z"/>
<path d="M2253 5042 c1 -12 6 -18 15 -15 7 3 10 9 5 12 -4 3 -11 10 -15 15 -4
4 -6 -1 -5 -12z"/>
<path d="M2346 5045 c-11 -8 -16 -15 -10 -15 5 0 18 7 28 15 11 8 16 15 10 15
-5 0 -18 -7 -28 -15z"/>
<path d="M2386 5044 c-11 -8 -16 -14 -10 -14 13 0 39 18 34 24 -3 2 -14 -2
-24 -10z"/>
<path d="M2490 5055 c0 -5 5 -17 10 -25 5 -8 10 -10 10 -5 0 6 -5 17 -10 25
-5 8 -10 11 -10 5z"/>
<path d="M3313 5047 c0 -8 6 -14 14 -14 9 0 10 4 2 14 -6 7 -12 13 -14 13 -1
0 -2 -6 -2 -13z"/>
<path d="M945 5040 c-3 -6 1 -7 9 -4 18 7 21 14 7 14 -6 0 -13 -4 -16 -10z"/>
<path d="M1160 5040 c-9 -6 -10 -10 -3 -10 6 0 15 5 18 10 8 12 4 12 -15 0z"/>
<path d="M1416 5042 c-3 -4 4 -9 15 -9 23 -2 25 3 4 10 -8 4 -16 3 -19 -1z"/>
<path d="M1805 5040 c-3 -6 1 -7 9 -4 18 7 21 14 7 14 -6 0 -13 -4 -16 -10z"/>
<path d="M2120 5040 c-9 -6 -10 -10 -3 -10 6 0 15 5 18 10 8 12 4 12 -15 0z"/>
<path d="M2434 5038 c-4 -6 -3 -8 4 -4 5 3 13 0 15 -6 3 -8 6 -6 6 5 1 19 -14
23 -25 5z"/>
<path d="M2530 5035 c0 -8 2 -15 4 -15 2 0 6 7 10 15 3 8 1 15 -4 15 -6 0 -10
-7 -10 -15z"/>
<path d="M2567 5039 c7 -7 15 -10 18 -7 3 3 -2 9 -12 12 -14 6 -15 5 -6 -5z"/>
<path d="M2731 5034 c0 -11 3 -14 6 -6 3 7 2 16 -1 19 -3 4 -6 -2 -5 -13z"/>
<path d="M2839 5033 c-13 -17 -13 -17 6 -3 11 8 22 16 24 17 2 2 0 3 -6 3 -6
0 -17 -8 -24 -17z"/>
<path d="M2872 5030 c-34 -21 -82 -27 -82 -10 0 6 -5 10 -11 10 -5 0 -7 -4 -4
-10 8 -13 -48 -9 -57 5 -5 6 -8 6 -8 -2 0 -7 -9 -13 -19 -13 -11 0 -22 6 -24
13 -4 10 -6 10 -6 0 -1 -7 -5 -13 -11 -13 -5 0 -7 8 -4 18 5 14 4 15 -5 2 -12
-17 -60 -22 -78 -8 -7 5 -14 5 -18 -2 -9 -14 -52 -13 -58 3 -3 9 -7 9 -20 -2
-10 -8 -24 -10 -34 -6 -10 5 -22 7 -28 5 -25 -7 -95 -6 -95 2 0 4 -5 8 -11 8
-5 0 -7 -4 -4 -10 8 -13 -48 -9 -57 5 -5 6 -8 6 -8 -2 0 -16 -52 -17 -68 -1
-9 9 -15 9 -24 0 -16 -16 -98 -16 -98 1 0 9 -2 9 -8 0 -5 -8 -33 -12 -75 -12
-37 1 -65 4 -62 8 2 4 -2 8 -10 8 -8 0 -12 -4 -9 -9 3 -4 -2 -8 -11 -8 -10 0
-13 5 -9 13 6 9 4 9 -7 1 -21 -17 -373 -18 -363 -1 6 9 4 9 -8 -1 -12 -10 -94
-12 -354 -12 -187 1 -366 1 -399 0 l-60 0 -44 -140 c-25 -77 -47 -140 -50
-140 -3 0 -7 -11 -7 -25 -2 -19 3 -25 20 -25 11 0 98 -1 191 -2 109 0 175 -5
184 -12 11 -8 13 -8 8 0 -10 17 150 19 171 2 9 -7 13 -8 9 -2 -8 14 91 14 112
0 10 -6 12 -6 7 2 -5 8 1 12 14 12 14 0 19 -4 14 -12 -6 -10 -4 -10 7 0 7 6
37 12 67 12 40 0 51 -3 46 -12 -6 -10 -4 -10 7 0 7 6 19 12 27 12 8 0 10 -5 6
-12 -6 -10 -4 -10 7 0 7 6 19 12 27 12 8 0 10 -5 6 -12 -6 -10 -4 -10 7 0 7 6
19 12 27 12 8 0 10 -5 6 -12 -6 -10 -4 -10 7 -2 20 15 61 16 52 1 -5 -9 -3 -9
8 -1 8 6 28 10 44 10 24 -1 30 -5 29 -23 -1 -13 2 -20 7 -18 4 3 6 13 4 23 -3
16 5 18 66 18 38 0 69 -3 69 -8 0 -5 -4 -7 -9 -3 -6 3 -15 -4 -21 -15 -7 -13
-7 -20 0 -20 5 0 10 7 10 16 0 8 4 13 9 9 6 -3 14 3 20 12 9 17 11 17 26 -2
12 -14 15 -15 12 -4 -5 14 8 16 104 15 59 -1 112 -6 116 -11 4 -4 -1 -5 -12
-2 -17 6 -18 5 -5 -6 8 -6 16 -17 17 -24 3 -14 -24 -25 -32 -13 -4 6 -1 10 4
10 8 0 7 7 -1 20 -9 14 -14 16 -20 7 -6 -9 -8 -8 -8 3 0 12 -2 12 -9 2 -4 -8
-11 -13 -15 -13 -22 3 -27 -1 -22 -15 4 -10 2 -14 -6 -11 -7 2 -12 10 -10 16
1 8 -2 9 -9 5 -8 -5 -10 -2 -7 7 4 10 -1 15 -13 15 -14 0 -16 -3 -6 -15 7 -8
12 -46 12 -90 0 -50 4 -76 12 -76 6 0 15 -3 19 -7 4 -5 -2 -8 -13 -8 -27 0
-40 19 -37 53 2 15 -1 25 -6 22 -5 -3 -9 -13 -9 -23 -2 -39 -7 -68 -13 -77 -4
-6 2 -16 13 -23 10 -7 19 -8 19 -3 0 5 -6 11 -12 14 -7 2 -10 8 -6 12 14 15
35 -15 32 -45 -2 -17 3 -35 12 -45 8 -8 11 -15 5 -15 -6 0 -11 -7 -11 -16 0
-11 -6 -14 -20 -9 -12 4 -20 2 -20 -5 0 -6 5 -8 10 -5 6 3 10 1 10 -4 0 -6 -5
-11 -12 -11 -6 0 -8 -3 -5 -7 4 -3 15 2 26 11 18 16 20 16 34 -13 9 -17 11
-31 6 -31 -5 0 -13 10 -18 23 -6 16 -8 9 -8 -30 0 -54 16 -74 42 -53 6 5 15 7
18 4 3 -4 4 6 1 21 -3 17 -1 24 6 20 5 -3 10 -2 10 3 0 5 -11 14 -25 20 -14 6
-25 17 -25 23 0 8 4 8 13 1 9 -8 16 -6 25 8 9 14 8 20 -1 23 -7 2 -8 8 -4 13
4 5 13 2 18 -6 9 -12 10 -12 5 3 -3 9 -9 24 -12 32 -4 11 -2 13 9 10 15 -6 21
-52 7 -60 -4 -2 -6 -25 -5 -50 1 -25 -1 -45 -5 -45 -4 0 -7 -17 -5 -37 1 -21
0 -42 -3 -48 -6 -9 -12 -71 -12 -122 0 -13 -4 -23 -9 -23 -10 0 -9 -26 2 -36
9 -10 -12 -46 -24 -39 -5 4 -9 1 -9 -4 0 -6 4 -11 8 -11 4 0 8 -16 9 -35 0
-29 -2 -33 -13 -24 -10 8 -11 15 -4 24 8 10 8 15 -1 21 -8 4 -9 3 -5 -4 4 -7
3 -12 -3 -12 -5 0 -9 -9 -8 -19 0 -11 5 -18 9 -15 12 8 26 -59 15 -73 -5 -7
-13 -11 -17 -8 -4 3 -10 -2 -14 -10 -6 -17 2 -45 13 -45 4 0 8 -7 8 -17 0 -12
-7 -8 -25 13 l-24 29 22 -37 c12 -21 18 -38 13 -38 -4 0 -1 -5 7 -10 11 -7 11
-10 2 -10 -7 0 -10 -5 -6 -12 4 -7 3 -8 -4 -4 -18 11 -14 -5 5 -28 10 -12 14
-18 9 -14 -18 15 -36 -29 -31 -76 4 -40 2 -47 -19 -58 -22 -12 -23 -14 -8 -28
14 -13 15 -12 9 3 -3 9 -2 17 3 17 6 0 9 -17 7 -37 -2 -26 -8 -37 -18 -35 -9
1 -7 -3 5 -13 17 -13 17 -15 4 -15 -9 0 -20 5 -23 10 -4 6 -11 8 -16 5 -8 -6
-11 0 -13 34 -1 8 -7 16 -14 17 -7 1 -8 0 -2 -3 5 -2 8 -9 5 -14 -7 -11 13
-51 23 -45 4 2 15 -2 25 -9 15 -11 15 -14 3 -18 -8 -3 -16 -1 -18 5 -3 7 -12
9 -21 5 -17 -6 -17 -8 -1 -32 9 -14 19 -23 22 -20 3 3 -3 14 -13 25 -10 11
-13 20 -7 20 6 0 13 -4 17 -10 3 -5 13 -7 23 -4 10 4 13 2 7 -3 -6 -4 -10 -29
-10 -55 1 -26 -2 -45 -6 -42 -4 2 -6 15 -5 29 2 14 -1 22 -7 18 -5 -3 -13 1
-18 8 -4 7 -11 10 -15 6 -4 -3 3 -15 16 -25 21 -17 21 -19 4 -32 -16 -14 -17
-13 -11 3 4 11 3 16 -3 12 -6 -3 -10 -1 -10 6 0 7 -3 10 -6 7 -3 -4 0 -16 6
-28 9 -16 15 -19 25 -10 16 13 23 -3 18 -45 -2 -16 -4 -39 -4 -50 0 -18 -1
-19 -10 -2 -6 9 -15 17 -22 17 -8 0 -7 -3 2 -9 8 -5 11 -16 8 -24 -3 -8 0 -20
6 -26 15 -15 -6 -14 -22 2 -11 10 -11 8 0 -10 7 -12 16 -20 20 -17 4 2 9 -4
11 -14 3 -11 0 -19 -8 -19 -7 0 -10 5 -7 11 4 6 0 5 -9 -1 -8 -7 -18 -10 -21
-6 -4 3 -7 1 -7 -6 0 -8 7 -11 15 -7 8 3 15 1 15 -5 0 -6 5 -7 12 -3 7 4 8 3
4 -5 -4 -6 -11 -9 -16 -6 -4 3 -11 -3 -15 -13 -13 -29 -15 -52 -6 -52 15 0 23
18 11 25 -11 7 -4 25 9 25 9 0 8 -41 -2 -57 -4 -6 -3 -14 3 -18 14 -9 2 -27
-13 -19 -7 3 -3 -2 7 -10 11 -9 15 -16 8 -16 -6 0 -9 -6 -6 -14 3 -8 1 -17 -4
-20 -5 -3 -8 -17 -7 -31 2 -14 0 -23 -4 -20 -10 5 -8 36 3 53 4 7 5 16 2 19
-3 3 -8 -2 -12 -11 -3 -9 -11 -13 -18 -9 -6 4 -5 -1 3 -10 11 -14 11 -20 0
-34 -10 -11 -10 -14 -1 -9 9 5 12 -3 12 -30 0 -21 8 -46 18 -58 14 -17 14 -19
0 -8 -9 7 -18 9 -20 5 -3 -4 -4 -3 -2 3 1 6 -3 11 -9 11 -7 0 -12 -10 -12 -22
0 -13 5 -21 11 -18 6 2 11 -3 11 -12 0 -9 -6 -14 -14 -11 -10 4 -11 1 -4 -12
14 -26 14 -34 0 -42 -6 -5 -9 -15 -6 -25 4 -9 11 -14 16 -10 5 3 13 0 17 -7 4
-7 4 -10 -1 -6 -12 11 -35 -11 -28 -28 3 -8 0 -14 -7 -14 -6 0 -9 4 -6 9 8 12
-21 34 -36 28 -8 -4 -7 -6 5 -6 9 -1 16 -4 15 -8 -3 -17 15 -42 26 -36 7 4 7
1 -1 -9 -7 -8 -12 -17 -10 -19 1 -2 -3 1 -9 8 -6 7 -20 13 -30 12 -17 0 -17
-1 2 -9 32 -13 52 -65 28 -74 -11 -4 -12 -1 -6 12 6 12 3 22 -10 34 -10 10
-18 14 -18 9 0 -6 5 -13 10 -16 5 -3 10 -14 10 -23 0 -13 -5 -12 -21 8 -18 22
-19 22 -10 3 6 -12 16 -25 21 -28 13 -8 13 -35 0 -35 -5 0 -10 6 -10 14 0 8
-5 18 -11 21 -5 4 -3 -9 5 -29 8 -20 15 -39 15 -42 0 -3 2 -8 4 -11 3 -3 4 3
3 14 -3 20 21 63 36 63 5 0 2 -7 -6 -16 -9 -8 -14 -19 -11 -24 3 -5 0 -12 -5
-15 -7 -5 -5 -12 7 -21 17 -13 17 -14 -2 -7 -18 6 -19 5 -5 -12 8 -10 10 -16
4 -12 -7 4 -14 0 -18 -8 -3 -8 -1 -17 5 -20 15 -10 -1 -26 -21 -20 -17 5 -37
-21 -25 -33 3 -3 5 0 5 7 0 7 5 9 10 6 8 -5 8 -11 0 -20 -9 -10 -6 -15 11 -20
17 -6 19 -9 8 -17 -11 -7 -11 -11 -1 -15 6 -2 12 -9 12 -15 0 -6 -7 -4 -17 3
-15 12 -16 12 -10 -3 8 -22 -2 -50 -14 -42 -5 3 -6 -2 -3 -10 3 -8 12 -17 21
-20 11 -5 13 -10 4 -20 -6 -7 -7 -17 -3 -21 4 -5 1 -5 -6 -1 -7 4 -10 11 -7
16 3 5 -2 17 -12 27 -10 10 -17 26 -15 35 2 9 -1 18 -5 21 -5 3 -8 -6 -7 -20
0 -13 7 -29 15 -33 11 -8 10 -12 -6 -24 -11 -9 -16 -16 -11 -16 6 0 2 -6 -9
-13 -14 -11 -15 -16 -5 -22 8 -5 11 -4 7 2 -4 6 0 14 9 17 8 3 12 10 9 16 -3
5 -2 10 4 10 19 0 24 -23 7 -32 -17 -10 -21 -33 -7 -42 5 -4 7 2 4 13 -5 22
25 37 41 21 8 -8 6 -9 -7 -4 -13 4 -16 2 -11 -9 3 -8 1 -18 -5 -22 -8 -4 -8
-12 -1 -25 8 -16 8 -18 -5 -14 -8 3 -12 10 -9 15 3 5 0 9 -6 9 -8 0 -9 -7 -5
-17 3 -10 7 -22 8 -28 1 -5 6 -13 11 -16 4 -4 3 -16 -3 -27 -8 -15 -8 -22 2
-25 9 -4 8 -6 -2 -6 -11 -1 -11 -4 0 -18 12 -14 12 -16 0 -8 -11 6 -13 4 -8
-9 4 -10 3 -15 -3 -11 -14 9 -12 -8 3 -25 6 -8 3 -7 -9 3 -11 9 -23 15 -26 12
-3 -3 -8 2 -12 11 -5 13 -2 15 14 11 11 -3 20 -2 21 1 0 4 2 15 4 24 2 10 0
17 -3 17 -21 -3 -42 2 -38 9 2 4 1 14 -4 22 -7 11 -9 9 -7 -9 1 -15 11 -27 27
-33 18 -7 21 -12 10 -15 -8 -3 -21 -6 -28 -9 -10 -3 -10 -9 -2 -24 6 -11 15
-18 21 -15 8 6 10 1 13 -33 1 -7 7 -17 14 -21 11 -6 10 -10 -3 -15 -12 -4 -16
-14 -13 -30 4 -17 1 -23 -9 -19 -7 3 -11 9 -8 13 2 4 -5 16 -16 26 -19 17 -20
17 -13 -1 5 -11 3 -16 -2 -12 -6 3 -10 -3 -11 -13 -1 -11 3 -22 8 -26 6 -3 9
2 7 11 -2 10 2 20 7 22 6 2 11 -6 12 -17 1 -13 -9 -25 -28 -35 -16 -9 -27 -20
-24 -25 3 -5 -3 -11 -12 -14 -14 -4 -13 -4 2 -2 11 1 19 8 18 14 -4 15 14 16
23 1 3 -6 0 -15 -7 -20 -9 -6 -10 -12 -4 -17 14 -10 18 -42 5 -42 -5 0 -10 5
-10 10 0 6 -5 10 -11 10 -8 0 -7 -5 1 -15 7 -9 19 -14 27 -11 7 3 13 1 13 -5
0 -6 4 -8 9 -4 5 3 13 0 17 -6 4 -7 3 -9 -4 -5 -14 8 -21 -18 -18 -75 1 -35
-1 -46 -11 -42 -7 3 -10 9 -7 14 3 5 0 9 -5 9 -6 0 -11 5 -11 11 0 5 6 7 13 3
6 -4 9 -4 5 1 -4 4 -4 13 1 19 6 7 1 12 -16 13 -17 1 -21 -2 -13 -7 7 -4 10
-13 6 -19 -4 -6 -2 -20 4 -31 8 -16 8 -22 -2 -25 -8 -3 -14 -16 -15 -28 -2
-21 -1 -21 12 3 13 24 24 29 26 13 0 -5 6 -15 12 -23 9 -12 9 -13 -3 -2 -20
18 -30 15 -30 -9 0 -14 -5 -19 -14 -16 -11 4 -13 1 -9 -10 4 -10 2 -14 -5 -9
-6 3 -14 1 -18 -5 -4 -8 -9 -7 -15 2 -5 8 -9 10 -9 4 0 -5 4 -16 9 -23 6 -11
10 -10 15 4 6 16 8 16 26 -1 19 -17 19 -17 16 2 -2 10 2 27 10 38 14 19 15 19
12 0 -2 -11 -7 -25 -11 -32 -4 -6 -3 -15 3 -18 8 -5 8 -11 0 -20 -7 -8 -8 -20
-4 -26 4 -8 3 -9 -4 -5 -16 10 -15 -7 1 -23 10 -11 8 -12 -8 -4 -11 6 -25 8
-32 6 -6 -2 -14 1 -18 6 -8 15 -25 14 -25 -1 0 -6 3 -8 7 -5 3 4 12 2 20 -5 7
-6 16 -8 19 -5 10 10 44 -26 34 -37 -4 -6 -9 -15 -10 -21 -1 -5 -8 -9 -15 -7
-8 1 -19 -7 -25 -19 -8 -15 -9 -19 -1 -15 6 4 11 2 11 -4 0 -6 5 -8 11 -4 8 4
7 9 -2 15 -7 4 -10 12 -5 16 5 4 11 2 13 -5 3 -6 9 -9 15 -6 5 3 4 -3 -4 -15
-14 -22 -38 -36 -38 -21 0 5 -9 12 -20 15 -11 3 -20 11 -20 16 0 6 4 8 9 5 5
-3 16 5 25 19 9 14 12 25 6 25 -5 0 -10 -5 -10 -11 0 -5 -4 -7 -10 -4 -6 4 -7
-1 -3 -12 6 -15 4 -16 -8 -6 -12 10 -15 8 -16 -7 -1 -10 9 -26 23 -35 15 -9
22 -21 17 -28 -5 -9 -4 -9 8 0 16 13 44 12 56 -2 4 -4 3 -5 -3 -2 -6 4 -20 -3
-30 -14 -16 -17 -16 -22 -4 -30 13 -8 12 -11 -3 -23 -16 -13 -16 -15 -2 -30 9
-9 12 -16 5 -16 -6 0 -8 -5 -5 -10 4 -6 11 -7 17 -4 7 4 8 2 4 -5 -4 -6 -13
-8 -19 -4 -7 4 -21 8 -32 9 -11 1 -28 5 -37 9 -11 4 -18 3 -18 -5 0 -6 4 -9 9
-5 5 3 12 1 16 -5 3 -5 18 -10 32 -10 18 0 24 -4 20 -15 -4 -8 -2 -17 4 -20 5
-4 6 -12 2 -18 -4 -7 -8 -15 -8 -19 0 -5 -3 -8 -7 -8 -5 0 -8 3 -7 6 0 4 -5
10 -12 15 -8 4 -10 11 -6 16 5 4 12 1 16 -6 5 -8 11 -9 15 -3 7 12 -19 23 -37
16 -20 -7 12 -73 33 -67 13 4 13 4 0 -6 -22 -16 -26 -14 -40 19 -12 29 -30 41
-30 20 0 -5 3 -10 8 -10 4 0 12 -10 17 -23 6 -13 19 -22 32 -22 11 0 25 -4 29
-8 5 -4 1 -5 -7 -2 -9 3 -16 0 -17 -7 0 -7 -2 -28 -3 -45 -1 -18 -6 -33 -10
-33 -4 0 -6 13 -4 29 3 25 0 29 -21 29 -13 0 -24 -5 -24 -10 0 -5 4 -7 9 -4 8
5 21 -15 20 -30 0 -3 7 -16 15 -30 9 -13 12 -24 8 -24 -12 0 -10 -43 3 -53 6
-4 -6 -6 -25 -4 -19 2 -27 2 -17 0 9 -2 17 -8 17 -13 0 -5 8 -7 18 -4 13 5 14
4 3 -4 -8 -6 -10 -15 -6 -22 5 -9 4 -11 -3 -6 -7 4 -12 2 -12 -5 0 -8 -5 -7
-17 2 -15 12 -16 12 -8 -1 14 -22 16 -50 5 -50 -6 0 -10 -5 -10 -11 0 -5 5 -7
10 -4 6 4 10 -7 10 -24 0 -31 -14 -42 -23 -18 -4 9 -6 9 -6 0 -1 -7 11 -19 27
-27 15 -8 22 -15 15 -16 -7 0 -10 -12 -8 -32 3 -24 2 -29 -5 -17 -5 9 -8 25
-6 36 3 12 -1 20 -9 20 -13 0 -13 -26 0 -47 4 -6 1 -18 -6 -26 -9 -12 -9 -13
2 -9 10 4 15 -2 16 -16 1 -12 8 -26 15 -31 9 -6 8 -8 -6 -6 -10 2 -21 -2 -23
-8 -2 -7 6 -11 19 -10 18 1 22 -4 20 -19 -2 -16 -1 -17 7 -5 5 8 7 18 5 22 -3
4 2 8 11 8 10 0 13 -5 9 -12 -5 -9 -2 -9 9 1 14 11 17 11 17 0 0 -9 3 -10 8
-3 10 16 95 18 86 1 -6 -9 -5 -9 7 0 16 13 92 15 84 3 -2 -4 2 -7 10 -7 8 0
12 3 10 7 -2 4 11 7 30 7 19 0 35 -2 35 -3 0 -1 -4 -14 -10 -28 -5 -14 -7 -26
-4 -26 3 0 10 13 15 30 10 28 49 44 49 20 0 -5 5 -10 11 -10 5 0 7 5 3 11 -8
14 58 8 68 -6 5 -6 8 -5 8 3 0 6 7 12 15 12 8 0 15 -6 15 -12 0 -9 3 -10 8 -2
9 14 92 17 92 4 0 -6 5 -10 11 -10 5 0 8 4 5 9 -4 5 27 9 69 10 58 1 74 -2 69
-12 -5 -9 -4 -9 7 1 18 17 173 17 163 0 -4 -7 -4 -10 1 -6 4 4 9 37 11 72 1
53 8 116 19 181 1 6 3 15 3 22 1 7 9 10 20 6 16 -5 16 -5 -1 8 -11 9 -16 23
-13 39 2 14 5 28 5 33 1 4 5 7 10 7 5 0 7 -8 4 -19 -3 -10 -1 -21 4 -24 5 -3
8 6 7 20 0 13 -7 29 -15 33 -11 8 -10 12 6 24 20 15 32 20 48 17 4 0 7 4 7 10
0 7 -7 8 -17 4 -10 -4 -23 -8 -30 -8 -7 0 -10 -4 -7 -9 3 -4 0 -8 -6 -8 -6 0
-8 12 -6 28 11 60 26 187 27 215 0 9 5 17 10 17 6 0 8 -4 5 -8 -9 -15 50 -6
75 11 13 9 19 17 14 17 -6 0 -19 -7 -29 -15 -30 -23 -44 -17 -16 6 15 12 18
19 8 16 -21 -7 -32 19 -11 27 10 4 13 14 9 30 -6 24 14 52 28 39 4 -4 4 0 1 9
-6 14 -11 11 -36 -15 -29 -31 -30 -31 -24 -7 5 21 4 22 -5 7 -6 -9 -8 -22 -4
-29 4 -6 8 -21 10 -32 1 -12 4 -27 5 -35 2 -7 -2 -16 -10 -19 -9 -3 -11 0 -7
7 4 7 4 17 -1 24 -5 7 -8 28 -6 47 2 19 4 55 5 80 2 44 18 67 38 55 6 -4 7
-11 4 -17 -4 -7 -9 -6 -14 2 -5 8 -9 7 -13 -5 -4 -9 -3 -13 3 -10 14 9 12 -8
-2 -25 -11 -12 -10 -12 5 -1 11 9 17 10 17 2 0 -6 -5 -11 -11 -11 -5 0 -7 -5
-4 -11 10 -15 19 -2 20 29 0 19 8 30 27 40 17 8 25 18 21 27 -3 8 -7 15 -10
15 -3 0 -3 -6 0 -14 3 -8 -2 -16 -14 -19 -21 -6 -24 2 -9 21 7 9 7 9 -2 2 -24
-20 -44 -11 -44 20 1 27 13 38 26 23 3 -4 -2 -3 -10 2 -12 6 -13 5 -2 -6 15
-16 16 -33 0 -23 -7 4 -8 3 -4 -5 14 -22 24 -1 21 44 -2 39 0 45 16 40 20 -7
37 31 22 46 -13 13 -43 0 -37 -16 3 -7 1 -16 -5 -19 -6 -4 -8 -13 -4 -21 3 -8
1 -15 -5 -15 -7 0 -10 59 -2 68 1 1 4 21 5 45 2 23 6 65 9 92 4 28 7 67 8 87
1 20 6 34 11 31 5 -3 6 3 3 14 -4 14 -2 20 9 20 19 0 19 -7 -1 -35 -10 -15
-11 -22 -3 -22 8 0 7 -5 -2 -17 -12 -14 -12 -16 0 -8 8 4 27 9 43 10 22 2 26
0 18 -10 -5 -6 -8 -14 -5 -17 3 -3 -2 -11 -12 -19 -15 -12 -16 -12 -10 3 3 10
2 20 -3 23 -11 7 -40 -5 -40 -17 0 -6 7 -5 15 2 9 7 18 10 21 8 3 -3 -7 -15
-22 -27 -29 -23 -22 -47 10 -35 14 5 14 9 4 22 -11 13 -10 14 8 8 20 -6 30 3
35 32 2 17 22 30 37 25 14 -4 14 -3 3 5 -8 6 -29 8 -47 6 -18 -2 -36 0 -39 6
-7 12 12 50 26 50 6 0 6 -8 -1 -21 -7 -11 -9 -23 -7 -25 3 -3 12 9 21 27 11
22 13 36 6 44 -6 7 -8 20 -4 29 3 9 1 16 -6 16 -6 0 -8 -5 -5 -10 11 -17 -7
-11 -21 8 -13 16 -14 16 -7 -2 4 -12 3 -17 -4 -13 -5 3 -10 0 -10 -8 0 -8 4
-15 9 -15 5 0 6 -5 3 -10 -4 -6 -10 -8 -14 -5 -11 6 -11 54 -1 60 4 3 6 22 5
42 -2 21 -1 32 2 25 3 -8 11 -5 24 10 21 27 25 12 4 -16 -8 -10 -12 -23 -9
-27 3 -5 -1 -9 -8 -9 -9 0 -9 -3 2 -10 8 -5 20 -10 25 -10 6 0 3 5 -5 10 -13
8 -12 10 3 10 9 0 17 -6 17 -12 0 -9 3 -8 10 2 8 13 11 12 25 -5 16 -19 16
-19 5 3 -6 12 -16 22 -23 21 -7 -1 -21 -1 -32 0 -15 1 -17 3 -7 10 8 4 13 12
12 17 -1 5 3 10 9 12 7 2 9 -4 5 -15 -5 -15 -4 -15 5 -3 7 11 6 19 -5 31 -14
16 -14 18 5 28 26 15 31 14 25 -4 -4 -8 -11 -12 -18 -8 -6 4 -5 -1 3 -10 7 -9
17 -15 20 -12 13 8 5 50 -10 51 -31 3 -33 6 -14 15 19 9 19 9 -1 6 -12 -3 -30
0 -40 5 -11 6 -9 1 6 -10 21 -17 22 -22 11 -36 -8 -9 -16 -14 -19 -11 -3 2 1
11 8 20 7 8 8 15 2 15 -12 0 -24 -29 -16 -41 3 -5 0 -9 -6 -9 -7 0 -9 16 -5
48 3 26 8 63 9 82 2 19 4 38 5 43 1 4 6 7 12 7 6 0 7 -5 2 -12 -12 -20 -12
-38 -1 -35 6 1 13 -4 15 -11 3 -8 -2 -10 -14 -6 -15 5 -15 4 -3 -5 13 -9 13
-11 0 -11 -12 -1 -11 -3 3 -11 9 -5 22 -7 27 -4 11 7 47 -15 48 -30 0 -5 6
-11 14 -13 9 -2 8 0 -2 7 -8 6 -10 11 -5 11 6 0 2 7 -8 14 -15 12 -15 15 -2
26 8 7 15 17 15 23 0 6 -6 3 -13 -8 -8 -10 -26 -19 -40 -21 -23 -2 -25 -1 -15
16 9 13 16 16 24 9 8 -7 15 -6 20 2 4 7 -6 23 -27 40 -19 16 -29 29 -22 29 6
0 15 -4 18 -10 8 -13 25 -13 25 1 0 5 -4 8 -9 4 -5 -3 -12 -1 -15 4 -5 8 13
17 52 26 24 6 27 16 4 12 -12 -2 -25 -6 -28 -10 -10 -10 -34 -9 -34 2 0 5 10
11 22 14 12 4 19 9 16 12 -3 4 -16 2 -27 -5 -13 -7 -21 -7 -21 -1 0 6 9 15 20
21 12 6 25 22 30 36 5 13 14 24 20 24 6 0 9 -4 5 -9 -3 -6 3 -14 13 -20 14 -7
19 -6 19 4 0 7 -7 11 -14 8 -8 -3 -13 0 -11 8 6 28 -29 19 -42 -11 -7 -16 -16
-30 -21 -30 -18 0 -5 27 49 99 13 17 20 32 15 33 -4 0 -12 2 -18 3 -5 2 -14 4
-20 5 -5 1 -1 6 10 11 l20 9 -20 -2 c-11 -2 -27 1 -35 6 -8 5 -12 6 -8 1 4 -4
2 -15 -5 -24 -11 -14 -10 -14 6 -2 21 17 22 8 1 -27 -15 -26 -15 -26 1 -5 26
34 40 28 16 -6 -12 -16 -19 -35 -16 -43 3 -8 -2 -14 -13 -15 -10 -1 -19 5 -19
12 0 8 3 12 7 10 4 -2 7 15 8 38 1 94 8 135 25 151 15 15 16 36 1 36 -3 0 -3
-4 1 -9 3 -5 2 -12 -3 -15 -4 -2 -9 4 -9 15 -2 23 0 23 37 4 26 -14 29 -14 24
0 -3 8 -10 12 -15 9 -5 -3 -9 1 -9 8 0 8 -5 19 -12 26 -13 13 -20 64 -7 57 4
-3 10 1 13 7 2 7 4 2 3 -12 -1 -14 -4 -27 -8 -30 -3 -3 3 -13 13 -22 17 -17
18 -17 14 4 -3 24 30 59 50 51 14 -5 13 22 -1 34 -4 4 -6 3 -2 -2 3 -6 -10
-20 -29 -33 -39 -26 -46 -16 -9 16 24 21 25 52 3 52 -7 0 -6 -5 1 -14 8 -10 8
-16 -1 -23 -17 -13 -58 -14 -58 -2 0 5 4 9 9 9 5 0 8 18 6 40 -1 22 0 40 4 40
4 0 6 19 5 43 0 23 2 46 5 52 3 5 6 28 7 50 1 21 7 41 13 43 7 2 8 10 2 20
-13 25 -13 25 -1 56 8 21 7 32 -1 43 -9 10 -9 17 -1 25 22 22 40 16 58 -19 18
-33 18 -35 1 -44 -9 -6 -15 -14 -12 -20 4 -5 -1 -9 -9 -9 -19 0 -20 9 -2 32 7
10 16 14 21 10 4 -4 2 3 -6 15 -7 12 -17 19 -21 17 -4 -3 -8 3 -8 12 0 13 -3
15 -11 7 -14 -14 -3 -33 19 -33 13 0 13 -2 -4 -15 -10 -8 -15 -15 -10 -15 5 0
3 -6 -3 -13 -8 -11 -5 -16 14 -25 22 -10 32 -5 23 13 -2 2 6 11 17 19 19 14
19 16 4 44 -16 28 -16 31 0 47 15 15 14 18 -8 36 -13 11 -21 22 -18 25 3 4 20
-5 37 -20 34 -28 45 -32 55 -16 4 6 -1 7 -11 3 -12 -4 -15 -3 -10 5 5 8 2 10
-9 6 -9 -4 -15 -3 -13 2 1 5 -6 24 -16 42 -9 19 -14 37 -10 40 4 4 9 1 11 -5
3 -7 9 -13 15 -13 7 0 7 5 -1 13 -11 14 -5 27 11 27 5 0 7 -4 3 -9 -3 -5 -2
-12 3 -15 4 -2 9 4 9 15 2 20 -21 26 -32 9 -3 -5 -10 -10 -16 -10 -5 0 -4 9 3
19 7 11 16 17 21 14 5 -3 3 4 -5 16 -7 12 -15 21 -18 21 -12 -1 -25 -16 -25
-29 0 -8 -7 -17 -15 -19 -12 -4 -13 -2 -4 9 6 8 10 29 8 46 -1 18 1 35 6 38 5
3 7 17 4 30 -2 14 0 25 6 25 6 0 8 -4 5 -10 -3 -5 -1 -10 4 -10 6 0 11 5 11
11 0 6 7 3 16 -5 8 -9 22 -16 31 -16 13 0 13 -3 3 -15 -13 -16 -35 -21 -26 -6
3 5 -1 12 -10 15 -25 10 -26 7 -6 -14 13 -14 25 -18 37 -14 14 6 16 4 10 -7
-4 -8 -4 -11 0 -6 18 16 12 49 -11 57 -30 12 -38 28 -24 45 16 19 26 19 34 -1
4 -12 2 -15 -9 -10 -8 3 -15 1 -15 -4 0 -12 27 -13 34 -1 3 4 0 16 -7 25 -13
18 -47 13 -47 -8 0 -6 -5 -4 -11 4 -8 12 -9 10 -4 -7 5 -18 3 -22 -9 -17 -9 3
-13 11 -9 18 4 6 8 31 8 55 0 26 5 46 13 48 6 3 12 0 12 -7 0 -6 -5 -8 -12 -4
-10 6 -10 4 -2 -7 14 -17 14 -50 1 -42 -6 3 -7 1 -3 -5 5 -8 13 -9 24 -3 9 4
24 6 32 4 13 -4 13 -3 1 5 -8 6 -21 8 -30 5 -13 -5 -12 -2 3 13 13 14 20 15
23 7 3 -7 9 -13 15 -13 6 0 4 7 -3 17 -12 15 -12 16 3 11 22 -9 56 16 38 27
-9 5 -11 4 -6 -3 4 -7 4 -12 -1 -13 -27 -3 -51 -7 -68 -14 -14 -5 -11 1 10 19
21 18 31 22 37 13 5 -8 8 -7 8 4 0 11 -9 17 -26 17 -15 0 -21 -4 -14 -8 8 -5
7 -9 -5 -14 -23 -9 -25 -8 -19 9 4 8 1 15 -6 15 -6 0 -8 -4 -5 -10 3 -5 1 -10
-5 -10 -6 0 -10 8 -8 17 2 10 12 18 23 18 14 0 19 6 17 18 -2 10 3 16 10 15 7
-2 13 4 13 12 0 23 26 49 44 43 14 -4 14 -3 1 6 -11 7 -20 5 -37 -11 -26 -24
-32 -8 -7 16 9 9 17 24 18 33 2 9 8 19 14 21 7 2 9 -5 7 -17 -5 -24 31 -49 47
-33 6 6 5 12 -3 17 -8 5 -10 4 -5 -3 8 -13 -3 -16 -20 -4 -6 4 -10 15 -8 25 1
10 -4 21 -12 24 -17 6 -25 1 -28 -19 -4 -27 -18 -39 -39 -33 -12 4 -17 3 -12
-2 16 -13 17 -34 3 -52 -11 -14 -11 -14 3 -4 9 7 19 10 22 6 9 -9 9 -23 0 -22
-27 4 -35 -1 -23 -15 9 -12 8 -15 -9 -13 -21 1 -28 12 -13 21 5 3 8 24 7 46
-1 23 2 43 6 46 4 2 6 23 4 45 -3 32 -1 38 9 30 20 -16 50 -3 35 15 -8 10 -8
14 -1 14 6 0 16 -8 21 -17 6 -10 11 -13 11 -7 0 22 -27 36 -48 25 -18 -10 -20
-7 -19 29 1 31 3 37 14 28 15 -12 18 -32 3 -23 -5 3 -10 2 -10 -4 0 -8 31 -9
75 -2 5 0 -1 8 -13 17 -12 8 -22 22 -22 30 0 8 -5 14 -10 14 -7 0 -7 -6 0 -20
7 -13 7 -20 1 -20 -6 0 -15 9 -21 19 -13 25 -13 31 1 31 7 0 18 8 26 18 11 13
14 14 10 1 -3 -8 2 -26 10 -40 10 -16 12 -17 7 -4 -18 54 2 185 27 169 5 -3
11 6 15 20 3 14 11 24 16 23 6 -1 12 4 14 11 1 7 0 8 -3 2 -2 -5 -9 -7 -15 -4
-5 3 -12 -3 -15 -15 -3 -12 -9 -21 -13 -21 -4 0 -17 -16 -29 -35 -14 -23 -25
-33 -36 -29 -8 3 -15 11 -15 16 0 6 7 8 15 4 9 -3 19 3 25 14 7 14 7 20 0 20
-5 0 -10 -8 -11 -17 0 -11 -3 -13 -6 -5 -2 6 -10 9 -16 5 -9 -5 -9 -3 -1 8 6
8 10 31 9 51 -1 37 15 55 36 42 12 -7 39 14 39 30 0 6 -5 3 -11 -6 -5 -10 -14
-18 -20 -18 -21 0 18 41 54 55 21 8 36 19 32 24 -3 5 0 12 5 14 6 3 5 4 -2 3
-7 -2 -12 -8 -11 -14 2 -9 -42 -27 -59 -24 -4 1 -10 -7 -13 -18 -4 -12 -12
-17 -23 -14 -13 5 -14 4 -4 -4 11 -8 11 -10 0 -15 -11 -4 -14 4 -14 29 1 20 6
34 13 34 7 0 10 -7 6 -17 -3 -12 0 -10 11 5 10 12 22 20 27 17 5 -4 9 -1 9 4
0 14 -13 14 -28 -1 -9 -9 -12 -9 -12 1 0 7 -4 10 -8 7 -5 -3 -9 1 -9 9 0 11 4
12 13 4 8 -7 14 -7 19 1 3 6 12 7 18 4 7 -4 8 -3 4 1 -4 5 3 15 15 22 13 7 18
12 12 13 -6 0 -23 -9 -38 -21 -14 -11 -26 -16 -26 -10 0 6 15 20 33 31 17 11
28 20 22 21 -5 0 -1 5 10 10 l20 9 -20 -1 c-36 -2 -46 1 -40 11 3 5 13 7 23 4
13 -5 14 -4 3 4 -9 7 -10 11 -2 15 7 3 7 4 -1 3 -7 -2 -20 0 -29 5 -10 5 -16
3 -16 -6 0 -7 7 -11 16 -8 11 3 10 0 -3 -11 -11 -9 -15 -16 -10 -16 14 0 14
-31 1 -47 -13 -17 -24 -16 -24 2 0 8 4 12 8 10 4 -3 6 16 4 43 -3 53 2 67 18
54 23 -18 69 -8 85 18 l14 25 -19 -24 c-13 -16 -25 -21 -33 -16 -11 7 -9 10 6
16 16 6 16 8 2 8 -9 1 -21 -7 -27 -16 -5 -10 -13 -14 -18 -10 -11 12 34 47 51
41 25 -9 30 18 8 36 -12 10 -19 20 -17 22 3 3 -5 4 -18 3 -17 -1 -22 -7 -20
-29 1 -18 -2 -24 -10 -19 -9 5 -9 3 0 -9 12 -14 8 -28 -7 -28 -8 0 -7 61 2 75
3 6 4 27 3 48 -2 20 1 40 6 43 5 3 6 11 3 17 -4 7 -3 8 1 4 12 -10 15 -38 7
-51 -14 -24 -8 -32 24 -33 19 0 32 3 29 7 -3 5 -2 10 2 13 5 2 2 2 -4 1 -25
-6 -40 7 -37 32 1 13 -3 30 -10 37 -9 9 -8 16 6 29 17 17 18 17 18 -7 0 -75
-1 -72 30 -73 17 0 30 3 30 8 0 4 -11 7 -25 5 -16 -1 -24 2 -22 9 2 6 14 10
25 8 12 -2 22 1 22 7 0 6 -7 8 -15 5 -8 -4 -15 -1 -15 5 0 6 5 11 11 11 8 0 8
5 -1 15 -7 8 -17 12 -24 8 -6 -3 -6 0 2 8 9 10 15 10 24 1 7 -7 17 -12 22 -12
6 0 2 6 -9 14 -11 8 -33 12 -48 11 -15 -2 -27 0 -28 3 -5 31 -4 84 2 87 3 3 5
23 4 45 -1 22 1 40 5 40 4 0 6 21 4 46 -3 36 0 45 11 41 7 -3 15 -3 17 1 2 4
17 -6 33 -22 23 -22 25 -27 10 -22 -14 5 -17 4 -9 -4 16 -16 46 -1 41 22 -4
13 5 25 30 42 33 23 34 24 13 31 -12 4 -24 4 -27 1 -4 -3 1 -6 11 -6 10 0 14
-5 11 -11 -4 -6 -9 -8 -12 -5 -3 3 -14 -5 -24 -17 -21 -25 -25 -17 -6 13 10
17 9 22 -3 30 -8 5 -25 8 -38 5 -15 -2 -22 0 -19 8 4 13 38 14 72 3 17 -6 17
-5 -1 5 -21 11 -21 12 -3 30 19 19 89 24 89 7 0 -5 -5 -6 -10 -3 -6 3 -13 0
-16 -9 -3 -9 -14 -13 -30 -10 -22 4 -23 3 -12 -10 7 -8 14 -10 16 -6 2 5 15 7
30 5 15 -2 21 -2 15 1 -7 3 -13 10 -13 15 0 6 4 8 9 4 6 -3 14 3 20 12 9 17
11 17 25 -2 10 -12 14 -14 11 -5 -4 13 4 16 47 16 29 0 56 -4 60 -10 5 -7 8
-7 8 -1 0 16 60 18 78 3 13 -11 14 -11 8 0 -6 10 -1 13 20 10 16 -2 28 -8 27
-14 -1 -6 5 -11 12 -11 11 0 12 4 4 14 -9 11 -3 13 32 10 24 -1 50 -6 58 -11
9 -6 12 -5 8 1 -5 8 88 11 303 11 224 -1 308 -4 303 -12 -4 -6 0 -5 9 2 9 7
22 12 30 11 7 -1 66 -1 131 0 94 1 117 4 117 15 0 8 5 27 12 43 6 15 12 34 14
42 2 8 17 61 35 118 18 57 30 105 27 108 -2 3 -118 5 -257 5 -194 1 -250 4
-245 13 5 9 3 9 -7 0 -8 -8 -44 -13 -99 -13 -55 0 -91 5 -99 13 -8 7 -11 7 -8
1 5 -8 -20 -12 -83 -12 -68 -1 -89 2 -83 11 5 9 2 8 -9 -1 -11 -9 -85 -12
-302 -11 -157 0 -284 4 -282 8 3 4 -1 8 -9 8 -8 0 -12 -4 -9 -8 3 -5 -45 -8
-107 -7 -100 1 -108 3 -85 15 14 8 26 16 26 18 0 7 -3 6 -38 -15z m218 -362
c0 -5 -4 -7 -9 -4 -5 3 -12 -1 -15 -10 -3 -9 -13 -14 -20 -11 -8 3 -20 -1 -26
-9 -10 -11 -9 -19 3 -38 15 -22 15 -23 -7 -23 -22 0 -23 3 -20 41 2 22 5 46 6
51 2 13 88 16 88 3z m-1040 -30 c0 -5 -11 -6 -25 -4 -15 3 -23 1 -20 -5 4 -5
11 -7 16 -4 5 4 9 1 9 -5 0 -6 4 -9 9 -5 6 3 14 -3 20 -12 6 -10 11 -12 11 -5
0 6 5 12 11 12 8 0 8 -4 2 -12 -5 -7 -9 -27 -8 -45 0 -17 -2 -30 -6 -27 -4 2
-10 0 -14 -6 -4 -6 -11 -8 -16 -5 -13 9 -11 25 4 23 6 -2 10 4 8 12 -2 8 -4
26 -4 40 0 14 -2 19 -4 11 -5 -11 -7 -11 -14 0 -7 12 -9 11 -9 -1 0 -13 -1
-13 -11 0 -9 13 -10 13 -6 0 2 -8 10 -14 16 -12 13 2 14 -8 3 -26 -12 -18 -34
27 -28 58 5 30 1 26 31 26 14 0 25 -4 25 -8z m-75 -39 c0 -8 8 -22 18 -31 21
-22 21 -32 2 -48 -12 -10 -14 -7 -10 19 2 17 0 29 -4 27 -6 -4 -7 -40 -2 -68
0 -5 8 -8 16 -8 8 0 15 -4 15 -10 0 -15 -16 -12 -30 5 -7 8 -16 13 -20 10 -11
-7 -7 29 5 38 7 5 7 10 0 15 -15 11 -18 42 -4 42 8 0 7 5 -2 17 -12 14 -12 16
1 11 8 -2 15 -11 15 -19z m1101 -1 c4 -6 -2 -17 -12 -25 -18 -13 -18 -15 -1
-24 9 -6 17 -14 17 -20 0 -5 -11 -2 -24 8 -16 12 -21 22 -15 30 7 7 6 14 -1
18 -5 3 -10 9 -10 13 0 12 39 12 46 0z m-1033 -41 c3 -8 -1 -14 -8 -14 -7 0
-11 6 -8 14 3 7 6 13 8 13 2 0 5 -6 8 -13z m10 -52 c11 5 14 -1 13 -24 0 -17
-7 -33 -16 -36 -11 -5 -12 -8 -1 -14 10 -7 10 -9 -1 -14 -10 -3 -14 3 -14 18
0 13 4 21 10 18 5 -3 6 -1 2 5 -5 9 -13 9 -29 0 -30 -17 -46 -18 -41 -4 2 6
13 13 24 14 11 1 28 3 38 4 10 1 19 8 19 15 0 8 -6 9 -16 3 -23 -12 -55 12
-38 29 9 9 14 8 23 -4 6 -8 18 -13 27 -10z m-96 -48 c7 3 10 -6 9 -21 -2 -18
1 -23 12 -19 12 5 12 2 3 -16 -14 -25 -7 -42 15 -34 11 4 12 9 5 16 -6 6 -11
16 -11 21 0 6 4 6 11 -1 14 -14 19 -62 7 -69 -5 -3 -6 -14 -3 -25 7 -22 -4
-24 -30 -6 -19 15 -12 42 9 34 7 -3 13 1 13 9 0 7 -4 11 -9 8 -17 -11 -37 18
-34 47 2 20 -4 35 -20 50 -13 12 -24 27 -24 33 1 6 8 2 18 -10 10 -11 23 -19
29 -17z m68 -26 c-2 -11 3 -27 11 -38 13 -16 13 -16 8 0 -3 9 -2 17 3 17 5 0
9 -9 10 -20 1 -11 -4 -20 -13 -20 -8 0 -14 4 -14 10 0 5 -12 21 -27 36 -16 15
-23 24 -16 20 6 -3 14 -2 18 4 11 17 24 11 20 -9z m945 -151 c0 -5 -4 -10 -10
-10 -5 0 -10 5 -10 10 0 6 5 10 10 10 6 0 10 -4 10 -10z m44 -34 c-5 -14 -9
-15 -15 -5 -5 8 -3 17 4 21 15 9 19 4 11 -16z m-1039 -6 c3 -5 1 -10 -4 -10
-6 0 -11 5 -11 10 0 6 2 10 4 10 3 0 8 -4 11 -10z m25 -5 c-10 -12 -10 -15 1
-15 10 0 9 -4 -3 -16 -16 -16 -38 -12 -38 8 0 6 7 5 17 -3 9 -8 14 -9 10 -2
-9 14 2 43 15 43 6 0 5 -6 -2 -15z m985 -73 c-3 -3 -11 0 -18 7 -9 10 -8 11 6
5 10 -3 15 -9 12 -12z m29 -68 c8 -20 -11 -17 -24 4 -10 15 -11 15 -6 0 2 -9
-1 -18 -7 -21 -8 -3 -12 6 -12 23 -1 25 1 27 22 17 12 -5 24 -16 27 -23z m-44
-144 c0 -5 -2 -10 -4 -10 -3 0 -8 5 -11 10 -3 6 -1 10 4 10 6 0 11 -4 11 -10z
m-997 -234 c4 -10 1 -13 -9 -9 -15 6 -19 23 -5 23 5 0 11 -7 14 -14z m944
-101 c-2 -24 -34 -62 -44 -51 -4 4 -1 11 7 16 11 7 12 10 2 10 -7 0 -10 5 -6
11 5 8 9 8 14 -1 5 -8 10 -8 14 -2 3 5 -1 12 -9 16 -21 8 -19 22 4 22 13 0 19
-7 18 -21z m8 -125 c3 -5 -1 -10 -10 -10 -9 0 -13 5 -10 10 3 6 8 10 10 10 2
0 7 -4 10 -10z m-35 -60 c0 -5 -4 -10 -10 -10 -5 0 -10 5 -10 10 0 6 5 10 10
10 6 0 10 -4 10 -10z m-50 -521 c-6 -10 -12 -19 -15 -19 -2 0 -12 -3 -22 -6
-13 -5 -12 -2 5 10 12 10 22 24 22 32 0 8 5 12 10 9 7 -4 7 -13 0 -26z m-15
-39 c-4 -6 3 -27 15 -48 l22 -37 -21 19 c-17 16 -24 17 -34 7 -9 -9 -7 -16 13
-31 29 -22 17 -46 -16 -33 -24 10 -30 34 -6 27 15 -5 15 -4 2 8 -20 17 -20 56
0 68 13 9 13 10 0 10 -13 0 -13 1 0 10 20 13 33 13 25 0z m-87 -668 c2 -7 -2
-10 -12 -6 -9 3 -16 11 -16 16 0 13 23 5 28 -10z m-973 -40 c-3 -3 -11 0 -18
7 -9 10 -8 11 6 5 10 -3 15 -9 12 -12z m5 -22 c0 -5 -2 -10 -4 -10 -3 0 -8 5
-11 10 -3 6 -1 10 4 10 6 0 11 -4 11 -10z m0 -104 c0 -3 -4 -8 -10 -11 -5 -3
-10 -1 -10 4 0 6 5 11 10 11 6 0 10 -2 10 -4z m990 -46 c-24 -33 -40 -46 -40
-31 0 5 8 15 18 20 9 6 13 11 8 11 -11 0 14 30 26 30 5 0 0 -13 -12 -30z m-54
-83 c-1 -13 -6 -28 -10 -35 -4 -6 -2 -21 4 -32 6 -11 9 -20 6 -20 -2 0 -13 -3
-23 -6 -15 -5 -15 -4 -3 5 9 7 10 11 3 11 -6 0 -11 9 -10 20 1 11 5 20 9 20 5
0 6 11 4 25 -3 14 -1 23 5 20 5 -4 9 -1 9 4 0 6 2 11 4 11 3 0 4 -10 2 -23z
m17 -140 c9 -3 17 -12 17 -18 0 -8 -4 -8 -15 1 -8 7 -15 9 -15 5 0 -4 -7 -2
-15 5 -8 7 -12 17 -9 22 4 6 9 6 13 1 3 -5 14 -12 24 -16z m-1025 -215 c-6 -7
-18 -10 -27 -7 -13 4 -13 3 1 -8 19 -15 18 -44 -3 -58 -13 -8 -5 -13 16 -9 6
1 4 -4 -3 -12 -18 -18 -31 5 -27 43 2 16 -1 31 -6 35 -13 8 21 33 43 31 13 -1
14 -4 6 -15z m1002 -83 c0 -17 -36 4 -37 23 -2 19 -1 19 18 3 10 -10 19 -21
19 -26z m-50 -149 c0 -5 -5 -10 -11 -10 -5 0 -7 5 -4 10 3 6 8 10 11 10 2 0 4
-4 4 -10z m0 -154 c0 -8 -4 -18 -10 -21 -5 -3 -10 3 -10 14 0 12 5 21 10 21 6
0 10 -6 10 -14z m-40 -292 c0 -8 -4 -12 -10 -9 -5 3 -10 10 -10 16 0 5 5 9 10
9 6 0 10 -7 10 -16z m-40 -54 c0 -5 -4 -10 -10 -10 -5 0 -10 5 -10 10 0 6 5
10 10 10 6 0 10 -4 10 -10z m-1007 -397 c-7 -2 -13 -11 -13 -18 0 -8 -4 -16
-9 -19 -12 -8 -8 27 4 36 6 4 15 7 20 7 6 0 4 -3 -2 -6z"/>
<path d="M3011 4647 c-13 -21 -12 -21 5 -5 10 10 16 20 13 22 -3 3 -11 -5 -18
-17z"/>
<path d="M2050 4580 c0 -5 5 -10 11 -10 5 0 7 5 4 10 -3 6 -8 10 -11 10 -2 0
-4 -4 -4 -10z"/>
<path d="M1980 4321 c0 -6 4 -13 10 -16 6 -3 7 1 4 9 -7 18 -14 21 -14 7z"/>
<path d="M2800 2840 c-13 -8 -12 -10 3 -10 9 0 17 5 17 10 0 12 -1 12 -20 0z"/>
<path d="M1665 1511 c-3 -5 -2 -12 3 -15 5 -3 9 1 9 9 0 17 -3 19 -12 6z"/>
<path d="M3011 5034 c0 -11 3 -14 6 -6 3 7 2 16 -1 19 -3 4 -6 -2 -5 -13z"/>
<path d="M3216 5033 c-6 -14 -5 -15 5 -6 7 7 10 15 7 18 -3 3 -9 -2 -12 -12z"/>
<path d="M3240 5045 c0 -2 6 -8 13 -14 10 -8 14 -7 14 2 0 8 -6 14 -14 14 -7
0 -13 -1 -13 -2z"/>
<path d="M3916 5038 c3 -5 10 -6 15 -3 13 9 11 12 -6 12 -8 0 -12 -4 -9 -9z"/>
<path d="M3959 5033 c-13 -17 -13 -17 6 -3 11 8 22 16 24 17 2 2 0 3 -6 3 -6
0 -17 -8 -24 -17z"/>
<path d="M3037 5029 c7 -7 15 -10 18 -7 3 3 -2 9 -12 12 -14 6 -15 5 -6 -5z"/>
<path d="M2078 5023 c7 -3 16 -2 19 1 4 3 -2 6 -13 5 -11 0 -14 -3 -6 -6z"/>
<path d="M1359 4647 c29 -32 28 -31 28 -12 0 8 -3 13 -5 10 -3 -3 -15 3 -26
12 -15 13 -14 10 3 -10z"/>
<path d="M1720 4666 c0 -2 7 -7 16 -10 8 -3 12 -2 9 4 -6 10 -25 14 -25 6z"/>
<path d="M1881 4649 c-7 -12 -8 -18 -2 -14 6 3 11 1 11 -4 0 -6 5 -11 11 -11
8 0 8 5 -1 15 -8 10 -9 15 -2 15 6 0 16 -8 21 -17 6 -10 11 -13 11 -7 0 6 -8
18 -18 27 -16 15 -19 15 -31 -4z"/>
<path d="M3118 4663 c7 -3 16 -2 19 1 4 3 -2 6 -13 5 -11 0 -14 -3 -6 -6z"/>
<path d="M3895 4660 c3 -5 8 -10 11 -10 2 0 4 5 4 10 0 6 -5 10 -11 10 -5 0
-7 -4 -4 -10z"/>
<path d="M866 4645 c-11 -8 -15 -15 -9 -15 6 0 16 7 23 15 16 19 11 19 -14 0z"/>
<path d="M1633 4644 c0 -7 4 -11 8 -8 4 2 10 -2 12 -8 4 -8 6 -7 6 3 1 9 -5
19 -12 22 -8 3 -14 -1 -14 -9z"/>
<path d="M3240 4651 c0 -10 19 -25 25 -20 1 2 -3 10 -11 17 -8 7 -14 8 -14 3z"/>
<path d="M910 4640 c0 -5 5 -10 11 -10 5 0 7 5 4 10 -3 6 -8 10 -11 10 -2 0
-4 -4 -4 -10z"/>
<path d="M1079 4633 c-13 -16 -12 -17 4 -4 9 7 17 15 17 17 0 8 -8 3 -21 -13z"/>
<path d="M1327 4639 c7 -7 15 -10 18 -7 3 3 -2 9 -12 12 -14 6 -15 5 -6 -5z"/>
<path d="M1413 4633 c0 -8 5 -9 11 -5 6 5 28 8 49 7 21 -1 40 1 42 5 2 3 -20
5 -49 5 -36 0 -53 -4 -53 -12z"/>
<path d="M1552 4644 c3 -3 12 -6 20 -8 7 -1 20 -5 28 -10 12 -7 13 -6 3 4 -7
8 -23 15 -35 17 -12 2 -19 1 -16 -3z"/>
<path d="M1715 4639 c-4 -6 -5 -12 -2 -15 2 -3 7 2 10 11 7 17 1 20 -8 4z"/>
<path d="M1835 4640 c3 -5 11 -10 16 -10 6 0 7 5 4 10 -3 6 -11 10 -16 10 -6
0 -7 -4 -4 -10z"/>
<path d="M3202 4636 c7 -8 15 -12 17 -11 5 6 -10 25 -20 25 -5 0 -4 -6 3 -14z"/>
<path d="M3280 4646 c0 -2 7 -7 16 -10 8 -3 12 -2 9 4 -6 10 -25 14 -25 6z"/>
<path d="M3370 4640 c0 -5 5 -10 10 -10 6 0 10 5 10 10 0 6 -4 10 -10 10 -5 0
-10 -4 -10 -10z"/>
<path d="M4336 4633 c-6 -14 -5 -15 5 -6 7 7 10 15 7 18 -3 3 -9 -2 -12 -12z"/>
<path d="M1750 4620 c0 -5 5 -10 10 -10 6 0 10 5 10 10 0 6 -4 10 -10 10 -5 0
-10 -4 -10 -10z"/>
<path d="M1805 4620 c-3 -5 -2 -10 4 -10 5 0 13 5 16 10 3 6 2 10 -4 10 -5 0
-13 -4 -16 -10z"/>
<path d="M3193 4613 c0 -12 4 -20 8 -17 4 2 10 -3 13 -12 3 -8 10 -13 15 -10
5 4 12 1 14 -4 4 -7 5 -6 4 1 -2 6 -6 10 -11 9 -5 -1 -17 11 -27 26 -16 25
-18 26 -16 7z"/>
<path d="M3230 4620 c0 -6 7 -10 15 -10 8 0 15 2 15 4 0 2 -7 6 -15 10 -8 3
-15 1 -15 -4z"/>
<path d="M3473 4610 c-1 -11 2 -20 7 -20 4 0 7 7 6 15 -3 23 -12 26 -13 5z"/>
<path d="M3770 4619 c0 -5 5 -7 10 -4 6 3 10 8 10 11 0 2 -4 4 -10 4 -5 0 -10
-5 -10 -11z"/>
<path d="M3815 4620 c-3 -5 -1 -10 4 -10 6 0 11 5 11 10 0 6 -2 10 -4 10 -3 0
-8 -4 -11 -10z"/>
<path d="M3875 4619 c-3 -4 2 -6 10 -5 21 3 28 13 10 13 -9 0 -18 -4 -20 -8z"/>
<path d="M3936 4618 c3 -5 10 -6 15 -3 13 9 11 12 -6 12 -8 0 -12 -4 -9 -9z"/>
<path d="M1454 4609 c-3 -6 -2 -15 3 -20 5 -5 9 -1 9 11 0 23 -2 24 -12 9z"/>
<path d="M1609 4603 c-13 -16 -12 -17 4 -4 9 7 17 15 17 17 0 8 -8 3 -21 -13z"/>
<path d="M1679 4608 c15 -21 31 -23 31 -6 0 6 -3 8 -7 5 -3 -4 -13 -1 -22 6
-14 11 -14 10 -2 -5z"/>
<path d="M1835 4610 c-3 -5 -3 -10 1 -10 4 0 -1 -7 -12 -15 -10 -8 -14 -14 -9
-15 18 0 32 15 32 33 0 19 -3 21 -12 7z"/>
<path d="M1861 4604 c0 -11 3 -14 6 -6 3 7 2 16 -1 19 -3 4 -6 -2 -5 -13z"/>
<path d="M3150 4610 c8 -5 20 -10 25 -10 6 0 3 5 -5 10 -8 5 -19 10 -25 10 -5
0 -3 -5 5 -10z"/>
<path d="M3406 4605 c-11 -8 -15 -15 -9 -15 6 0 16 7 23 15 16 19 11 19 -14 0z"/>
<path d="M3633 4605 c0 -8 4 -12 9 -9 5 3 6 10 3 15 -9 13 -12 11 -12 -6z"/>
<path d="M1075 4600 c-3 -5 -1 -10 4 -10 6 0 11 5 11 10 0 6 -2 10 -4 10 -3 0
-8 -4 -11 -10z"/>
<path d="M1220 4606 c0 -2 8 -10 18 -17 15 -13 16 -12 3 4 -13 16 -21 21 -21
13z"/>
<path d="M1300 4606 c0 -2 8 -10 18 -17 15 -13 16 -12 3 4 -13 16 -21 21 -21
13z"/>
<path d="M1334 4602 c4 -3 14 -7 22 -8 9 -1 13 0 10 4 -4 3 -14 7 -22 8 -9 1
-13 0 -10 -4z"/>
<path d="M1546 4602 c-3 -5 1 -9 9 -9 8 0 12 4 9 9 -3 4 -7 8 -9 8 -2 0 -6 -4
-9 -8z"/>
<path d="M1886 4599 c2 -4 -5 -14 -16 -22 -17 -12 -18 -15 -6 -20 9 -4 13 -13
10 -22 -3 -8 -10 -12 -16 -9 -5 3 -4 -3 4 -15 15 -25 24 -26 31 -7 4 10 1 13
-9 9 -10 -4 -12 0 -8 11 3 9 10 13 15 10 8 -5 13 10 10 30 -1 5 5 6 14 3 8 -4
15 -2 15 4 0 6 -8 9 -17 7 -10 -2 -17 -10 -15 -16 2 -14 -14 -16 -23 -3 -6 11
35 42 47 35 4 -3 8 0 8 5 0 6 -11 10 -24 9 -14 -1 -23 -5 -20 -9z"/>
<path d="M3270 4599 c0 -5 5 -7 10 -4 6 3 10 8 10 11 0 2 -4 4 -10 4 -5 0 -10
-5 -10 -11z"/>
<path d="M3520 4600 c-9 -6 -10 -10 -3 -10 6 0 15 5 18 10 8 12 4 12 -15 0z"/>
<path d="M1515 4589 c-4 -6 -5 -12 -2 -15 2 -3 7 2 10 11 7 17 1 20 -8 4z"/>
<path d="M1788 4593 c7 -3 16 -2 19 1 4 3 -2 6 -13 5 -11 0 -14 -3 -6 -6z"/>
<path d="M3315 4591 c-6 -11 13 -26 22 -17 4 3 1 6 -6 6 -7 0 -9 5 -6 10 3 6
4 10 1 10 -3 0 -7 -4 -11 -9z"/>
<path d="M3353 4587 c0 -8 6 -14 14 -14 9 0 10 4 2 14 -6 7 -12 13 -14 13 -1
0 -2 -6 -2 -13z"/>
<path d="M1016 4582 c-3 -5 1 -9 9 -9 8 0 12 4 9 9 -3 4 -7 8 -9 8 -2 0 -6 -4
-9 -8z"/>
<path d="M1750 4580 c0 -5 5 -10 10 -10 6 0 10 5 10 10 0 6 -4 10 -10 10 -5 0
-10 -4 -10 -10z"/>
<path d="M3176 4566 c5 -21 3 -25 -9 -20 -9 3 -15 11 -13 17 1 7 1 9 -1 4 -3
-4 -9 -5 -14 -1 -5 3 -9 0 -9 -5 0 -6 -7 -11 -15 -11 -8 0 -15 -5 -15 -10 0
-7 6 -7 20 0 14 7 26 7 39 1 10 -6 21 -7 25 -4 10 10 7 41 -4 48 -7 4 -9 -2
-4 -19z"/>
<path d="M3426 4582 c-3 -5 1 -9 9 -9 8 0 15 4 15 9 0 4 -4 8 -9 8 -6 0 -12
-4 -15 -8z"/>
<path d="M3856 4582 c-2 -4 -1 -14 4 -22 7 -11 9 -9 7 8 -1 24 -3 26 -11 14z"/>
<path d="M1717 4569 c7 -7 15 -10 18 -7 3 3 -2 9 -12 12 -14 6 -15 5 -6 -5z"/>
<path d="M3514 4572 c4 -7 2 -21 -5 -30 -12 -15 -11 -15 6 0 16 15 17 20 6 30
-11 11 -13 10 -7 0z"/>
<path d="M3557 4573 c-10 -9 -9 -23 1 -23 5 0 9 7 9 15 0 17 -1 18 -10 8z"/>
<path d="M3675 4569 c-4 -6 -5 -12 -2 -15 2 -3 7 2 10 11 7 17 1 20 -8 4z"/>
<path d="M1120 4560 c-9 -6 -10 -10 -3 -10 6 0 15 5 18 10 8 12 4 12 -15 0z"/>
<path d="M1480 4566 c0 -2 8 -10 18 -17 15 -13 16 -12 3 4 -13 16 -21 21 -21
13z"/>
<path d="M1670 4560 c0 -5 5 -10 11 -10 5 0 7 5 4 10 -3 6 -8 10 -11 10 -2 0
-4 -4 -4 -10z"/>
<path d="M1792 4556 c7 -8 15 -12 17 -11 5 6 -10 25 -20 25 -5 0 -4 -6 3 -14z"/>
<path d="M3210 4552 c9 -19 30 -23 30 -5 0 4 -3 3 -7 0 -3 -4 -12 1 -20 11
-13 15 -13 15 -3 -6z"/>
<path d="M3273 4555 c-3 -8 -10 -12 -17 -8 -6 3 -7 2 -3 -2 13 -15 36 -14 30
0 -3 11 3 13 23 9 16 -3 26 -3 23 1 -14 13 -50 13 -56 0z"/>
<path d="M3915 4560 c3 -5 8 -10 11 -10 2 0 4 5 4 10 0 6 -5 10 -11 10 -5 0
-7 -4 -4 -10z"/>
<path d="M1830 4550 c0 -6 7 -10 15 -10 8 0 15 2 15 4 0 2 -7 6 -15 10 -8 3
-15 1 -15 -4z"/>
<path d="M3389 4543 c-13 -16 -12 -17 4 -4 16 13 21 21 13 21 -2 0 -10 -8 -17
-17z"/>
<path d="M1173 4529 c-2 -23 3 -25 10 -4 4 8 3 16 -1 19 -4 3 -9 -4 -9 -15z"/>
<path d="M1230 4545 c0 -7 30 -13 34 -7 3 4 -4 9 -15 9 -10 1 -19 0 -19 -2z"/>
<path d="M1295 4540 c-3 -5 -1 -10 4 -10 6 0 11 5 11 10 0 6 -2 10 -4 10 -3 0
-8 -4 -11 -10z"/>
<path d="M1335 4540 c3 -5 8 -10 11 -10 2 0 4 5 4 10 0 6 -5 10 -11 10 -5 0
-7 -4 -4 -10z"/>
<path d="M1602 4538 c-15 -15 -15 -28 0 -28 6 0 8 3 5 7 -4 3 -2 12 4 20 14
16 7 17 -9 1z"/>
<path d="M1736 4537 c3 -10 9 -15 12 -12 3 3 0 11 -7 18 -10 9 -11 8 -5 -6z"/>
<path d="M1765 4524 c-9 -14 -15 -27 -13 -30 2 -2 12 10 22 26 21 37 15 40 -9
4z"/>
<path d="M2990 4540 c0 -5 7 -10 15 -10 8 0 15 -4 15 -10 0 -5 -6 -8 -12 -6
-7 1 -10 1 -5 -1 4 -3 7 -9 7 -14 0 -6 -5 -7 -12 -3 -7 4 -8 3 -4 -4 4 -6 2
-21 -4 -33 -16 -28 2 -48 25 -29 15 12 16 11 13 -6 -2 -12 3 -19 12 -19 8 0
14 8 14 17 -1 13 4 17 20 13 23 -5 53 13 58 36 2 8 14 22 28 31 14 10 20 18
14 18 -13 0 -63 -39 -51 -40 4 0 -1 -9 -12 -21 -13 -14 -26 -19 -40 -14 -12 3
-19 11 -15 16 4 6 11 6 20 -2 13 -11 16 -7 13 17 0 4 5 11 13 16 9 7 7 8 -7 3
-11 -4 -26 -7 -32 -6 -7 0 -20 2 -28 3 -9 1 -13 8 -10 17 2 9 1 21 -3 26 -10
14 -32 17 -32 5z m63 -59 c12 -1 -2 -21 -14 -21 -6 0 -7 4 -4 10 4 6 -1 7 -11
3 -14 -5 -13 -8 7 -20 13 -8 17 -12 8 -9 -9 2 -22 -1 -28 -7 -6 -6 -14 -7 -18
-3 -4 4 -2 11 6 15 7 5 12 11 12 15 -3 19 1 24 17 21 9 -2 21 -4 25 -4z m-3
-61 c0 -5 -5 -10 -11 -10 -5 0 -7 5 -4 10 3 6 8 10 11 10 2 0 4 -4 4 -10z"/>
<path d="M3347 4539 c7 -7 15 -10 18 -7 3 3 -2 9 -12 12 -14 6 -15 5 -6 -5z"/>
<path d="M3470 4539 c0 -5 5 -7 10 -4 6 3 10 8 10 11 0 2 -4 4 -10 4 -5 0 -10
-5 -10 -11z"/>
<path d="M3695 4539 c-3 -4 2 -6 10 -5 21 3 28 13 10 13 -9 0 -18 -4 -20 -8z"/>
<path d="M1436 4522 c-3 -5 1 -9 9 -9 8 0 12 4 9 9 -3 4 -7 8 -9 8 -2 0 -6 -4
-9 -8z"/>
<path d="M1626 4522 c-3 -5 1 -9 9 -9 8 0 12 4 9 9 -3 4 -7 8 -9 8 -2 0 -6 -4
-9 -8z"/>
<path d="M1796 4518 c3 -4 11 -5 19 -1 21 7 19 12 -4 10 -11 0 -18 -5 -15 -9z"/>
<path d="M3115 4520 c-13 -6 -15 -9 -5 -9 8 0 22 4 30 9 18 12 2 12 -25 0z"/>
<path d="M3230 4520 c-9 -6 -10 -10 -3 -10 6 0 15 5 18 10 8 12 4 12 -15 0z"/>
<path d="M3534 4522 c4 -3 14 -7 22 -8 9 -1 13 0 10 4 -4 3 -14 7 -22 8 -9 1
-13 0 -10 -4z"/>
<path d="M3270 4516 c0 -2 9 -6 20 -9 11 -3 18 -1 14 4 -5 9 -34 13 -34 5z"/>
<path d="M1354 4502 c4 -3 14 -7 22 -8 9 -1 13 0 10 4 -4 3 -14 7 -22 8 -9 1
-13 0 -10 -4z"/>
<path d="M1665 4500 c-3 -6 1 -7 9 -4 18 7 21 14 7 14 -6 0 -13 -4 -16 -10z"/>
<path d="M1706 4496 c6 -15 4 -17 -6 -11 -9 6 -11 4 -5 -4 5 -9 10 -10 18 -2
8 8 7 14 -2 24 -10 10 -11 8 -5 -7z"/>
<path d="M1774 4499 c-3 -6 -1 -16 5 -22 9 -9 10 -7 5 7 -6 15 -4 17 6 11 9
-5 11 -4 6 3 -9 15 -13 15 -22 1z"/>
<path d="M1815 4500 c-8 -13 5 -13 25 0 13 8 13 10 -2 10 -9 0 -20 -4 -23 -10z"/>
<path d="M3190 4503 c0 -5 5 -15 10 -23 7 -12 9 -10 7 8 -1 19 -17 33 -17 15z"/>
<path d="M3245 4499 c-4 -6 -4 -13 -1 -16 3 -4 6 -1 6 6 0 7 5 9 12 5 7 -4 8
-3 4 4 -9 15 -13 15 -21 1z"/>
<path d="M3392 4491 c7 -9 13 -18 15 -20 1 -2 1 5 0 16 0 11 -7 20 -14 20 -10
0 -10 -4 -1 -16z"/>
<path d="M3635 4499 c-3 -4 2 -6 10 -5 21 3 28 13 10 13 -9 0 -18 -4 -20 -8z"/>
<path d="M1614 4489 c-3 -6 -2 -15 3 -20 5 -5 9 -1 9 11 0 23 -2 24 -12 9z"/>
<path d="M3334 4480 c0 -13 4 -16 10 -10 7 7 7 13 0 20 -6 6 -10 3 -10 -10z"/>
<path d="M3456 4487 c3 -10 9 -15 12 -12 3 3 0 11 -7 18 -10 9 -11 8 -5 -6z"/>
<path d="M3563 4482 c10 -10 14 -22 10 -27 -5 -4 -2 -5 5 -1 11 6 10 12 -4 27
-9 10 -19 19 -22 19 -3 0 2 -8 11 -18z"/>
<path d="M1570 4482 c0 -5 7 -9 15 -9 8 0 12 4 9 9 -3 4 -9 8 -15 8 -5 0 -9
-4 -9 -8z"/>
<path d="M1835 4479 c-4 -6 -4 -13 -1 -16 3 -4 6 -1 6 5 0 7 4 12 10 12 5 0 7
-8 3 -17 -5 -14 -3 -15 7 -6 7 6 9 16 6 22 -9 14 -23 14 -31 0z"/>
<path d="M3171 4473 c12 -15 12 -16 -4 -10 -11 4 -16 3 -12 -3 3 -6 1 -10 -6
-10 -7 0 -10 -3 -7 -6 12 -11 47 16 42 31 -4 8 -11 15 -16 15 -6 0 -4 -8 3
-17z"/>
<path d="M3360 4486 c0 -2 8 -10 18 -17 15 -13 16 -12 3 4 -13 16 -21 21 -21
13z"/>
<path d="M1670 4476 c0 -2 8 -10 18 -17 15 -13 16 -12 3 4 -13 16 -21 21 -21
13z"/>
<path d="M1756 4467 c3 -10 9 -15 12 -12 3 3 0 11 -7 18 -10 9 -11 8 -5 -6z"/>
<path d="M1732 4460 c2 -8 -3 -14 -9 -12 -20 3 -15 -15 5 -20 13 -4 18 0 17
13 -1 10 -5 22 -9 26 -4 5 -6 1 -4 -7z"/>
<path d="M1871 4447 c-13 -21 -12 -21 5 -5 10 10 16 20 13 22 -3 3 -11 -5 -18
-17z"/>
<path d="M3195 4450 c-16 -11 -25 -20 -20 -20 10 0 64 39 55 40 -3 0 -18 -9
-35 -20z"/>
<path d="M1650 4456 c0 -2 8 -10 18 -17 15 -13 16 -12 3 4 -13 16 -21 21 -21
13z"/>
<path d="M3293 4438 c0 -13 1 -17 4 -10 3 6 10 9 16 5 7 -4 6 1 -2 10 -17 21
-17 21 -18 -5z"/>
<path d="M1594 4442 c4 -3 14 -7 22 -8 9 -1 13 0 10 4 -4 3 -14 7 -22 8 -9 1
-13 0 -10 -4z"/>
<path d="M1780 4440 c0 -5 5 -10 11 -10 5 0 7 5 4 10 -3 6 -8 10 -11 10 -2 0
-4 -4 -4 -10z"/>
<path d="M1826 4436 c10 -8 21 -12 24 -10 5 6 -21 24 -34 24 -6 0 -1 -6 10
-14z"/>
<path d="M3354 4434 c1 -8 4 -15 7 -16 2 -2 3 -1 2 1 -2 2 2 9 7 16 7 8 5 12
-4 12 -8 0 -13 -6 -12 -13z"/>
<path d="M3111 4427 c-13 -13 -15 -37 -2 -37 6 0 13 5 17 12 4 7 3 8 -4 4 -7
-4 -12 -3 -12 2 0 16 13 22 27 11 8 -7 13 -8 13 -1 0 15 -26 22 -39 9z"/>
<path d="M1453 4415 c0 -8 4 -12 9 -9 5 3 6 10 3 15 -9 13 -12 11 -12 -6z"/>
<path d="M1535 4420 c3 -5 8 -10 11 -10 2 0 4 5 4 10 0 6 -5 10 -11 10 -5 0
-7 -4 -4 -10z"/>
<path d="M1804 4415 c-3 -8 -4 -20 -1 -27 3 -7 6 -3 6 10 1 15 5 21 13 16 7
-4 8 -3 4 4 -10 16 -15 15 -22 -3z"/>
<path d="M3190 4410 c-6 -11 -8 -20 -6 -20 3 0 10 9 16 20 6 11 8 20 6 20 -3
0 -10 -9 -16 -20z"/>
<path d="M3319 4413 c-13 -16 -12 -17 4 -4 16 13 21 21 13 21 -2 0 -10 -8 -17
-17z"/>
<path d="M1856 4411 c-4 -5 4 -7 16 -4 19 4 20 3 8 -7 -12 -9 -10 -10 10 -4
22 6 23 5 11 -10 -9 -10 -10 -16 -2 -16 6 0 11 5 11 11 0 5 5 7 10 4 6 -3 10
-2 10 3 0 9 -43 32 -60 32 -5 0 -11 -4 -14 -9z"/>
<path d="M3062 4400 c-7 -11 -9 -20 -4 -20 4 0 13 9 20 20 7 11 9 20 4 20 -4
0 -13 -9 -20 -20z"/>
<path d="M3157 4407 c-3 -8 -2 -20 3 -26 5 -9 8 -4 8 13 0 29 -3 32 -11 13z"/>
<path d="M1753 4393 c4 -23 26 -62 27 -46 0 6 -4 14 -9 18 -6 3 -8 14 -6 25 2
11 0 20 -6 20 -5 0 -8 -8 -6 -17z"/>
<path d="M2998 4401 c10 -6 8 -10 -10 -15 -13 -3 -19 -9 -13 -13 13 -10 18
-33 7 -33 -19 0 -7 -26 12 -27 12 -1 15 1 9 4 -20 7 -15 19 7 20 12 1 18 -3
14 -8 -3 -6 2 -16 12 -23 15 -12 20 -9 41 21 25 37 28 49 14 57 -5 4 -7 -2 -4
-12 2 -10 -2 -24 -10 -30 -15 -13 -50 -6 -42 9 3 4 12 6 19 3 8 -3 16 -1 19 3
3 5 -3 9 -13 10 -11 1 -22 -2 -25 -8 -4 -5 -11 -9 -17 -9 -6 0 -4 8 5 18 15
16 15 19 -3 30 -11 7 -23 12 -27 12 -5 0 -2 -4 5 -9z m14 -34 c-7 -8 -10 -17
-7 -20 3 -4 2 -4 -2 -1 -11 8 -10 28 1 36 16 10 20 0 8 -15z m43 -47 c3 -5 2
-10 -4 -10 -5 0 -13 5 -16 10 -3 6 -2 10 4 10 5 0 13 -4 16 -10z"/>
<path d="M3210 4406 c0 -2 7 -7 16 -10 8 -3 12 -2 9 4 -6 10 -25 14 -25 6z"/>
<path d="M3290 4401 c0 -6 4 -13 10 -16 6 -3 7 1 4 9 -7 18 -14 21 -14 7z"/>
<path d="M1830 4390 c0 -6 7 -10 15 -10 8 0 15 2 15 4 0 2 -7 6 -15 10 -8 3
-15 1 -15 -4z"/>
<path d="M3120 4378 c-12 -8 -11 -9 3 -4 12 4 17 2 14 -6 -2 -7 -10 -12 -16
-10 -6 1 -11 -2 -11 -7 0 -18 36 -7 37 11 2 23 -9 29 -27 16z"/>
<path d="M1870 4369 c0 -5 -4 -7 -10 -4 -5 3 -7 0 -4 -9 4 -11 0 -14 -15 -11
-11 2 -24 -1 -27 -7 -4 -6 -2 -8 4 -4 6 3 13 -2 15 -11 4 -17 5 -17 6 0 0 10
6 15 11 12 6 -3 13 1 16 9 3 9 10 13 15 10 5 -3 6 2 3 10 -7 18 -14 21 -14 5z"/>
<path d="M3200 4370 c-23 -7 -23 -8 -3 -9 12 -1 25 4 28 9 3 6 5 10 3 9 -2 -1
-14 -5 -28 -9z"/>
<path d="M1713 4354 c0 -9 4 -11 12 -4 7 5 14 9 16 7 2 -1 3 0 1 2 -7 11 -29
7 -29 -5z"/>
<path d="M1800 4360 c-8 -5 -10 -10 -5 -10 6 0 17 5 25 10 8 5 11 10 5 10 -5
0 -17 -5 -25 -10z"/>
<path d="M1907 4352 c-10 -10 -17 -25 -17 -33 1 -8 6 -4 13 9 10 17 15 20 25
10 9 -9 12 -9 12 0 0 7 -5 12 -11 12 -5 0 -7 5 -4 10 10 16 -1 11 -18 -8z"/>
<path d="M3315 4351 c-3 -5 -2 -12 3 -15 5 -3 9 1 9 9 0 17 -3 19 -12 6z"/>
<path d="M1680 4340 c-9 -6 -10 -10 -3 -10 6 0 15 5 18 10 8 12 4 12 -15 0z"/>
<path d="M3266 4342 c-2 -4 4 -8 14 -8 10 0 16 4 14 8 -3 4 -9 8 -14 8 -5 0
-11 -4 -14 -8z"/>
<path d="M3455 4341 c-3 -5 -2 -12 3 -15 5 -3 9 1 9 9 0 17 -3 19 -12 6z"/>
<path d="M1635 4331 c-3 -5 -2 -12 3 -15 5 -3 9 1 9 9 0 17 -3 19 -12 6z"/>
<path d="M1734 4329 c-3 -6 -2 -15 3 -20 5 -5 9 -1 9 11 0 23 -2 24 -12 9z"/>
<path d="M3509 4323 c-13 -16 -12 -17 4 -4 9 7 17 15 17 17 0 8 -8 3 -21 -13z"/>
<path d="M3113 4311 c16 -10 28 -22 27 -26 -1 -3 1 -9 3 -12 3 -3 4 2 3 11 -2
17 -34 45 -51 46 -5 0 3 -9 18 -19z"/>
<path d="M3130 4326 c0 -2 7 -7 16 -10 8 -3 12 -2 9 4 -6 10 -25 14 -25 6z"/>
<path d="M3171 4327 c2 -1 13 -9 24 -17 19 -14 19 -14 6 3 -7 9 -18 17 -24 17
-6 0 -8 -1 -6 -3z"/>
<path d="M3387 4319 c7 -7 15 -10 18 -7 3 3 -2 9 -12 12 -14 6 -15 5 -6 -5z"/>
<path d="M1854 4309 c1 -7 13 -14 27 -16 18 -2 20 -1 9 6 -8 5 -17 8 -21 5 -4
-2 -10 1 -12 6 -3 6 -4 5 -3 -1z"/>
<path d="M3077 4304 c-12 -12 -8 -35 6 -33 25 3 38 -1 32 -11 -3 -5 -1 -10 4
-10 16 0 13 18 -3 27 -8 4 -15 12 -15 18 1 12 -15 18 -24 9z m23 -8 c0 -3 -4
-8 -10 -11 -5 -3 -10 -1 -10 4 0 6 5 11 10 11 6 0 10 -2 10 -4z"/>
<path d="M3164 4299 c-3 -6 -1 -16 5 -22 9 -9 10 -7 5 7 -6 15 -4 17 6 11 9
-5 11 -4 6 3 -9 15 -13 15 -22 1z"/>
<path d="M3228 4303 c6 -3 10 -9 6 -14 -8 -14 2 -11 14 4 8 10 6 13 -11 14
-12 0 -16 -1 -9 -4z"/>
<path d="M1796 4286 c10 -8 21 -12 24 -10 5 6 -21 24 -34 24 -6 0 -1 -6 10
-14z"/>
<path d="M1590 4286 c0 -2 7 -7 16 -10 8 -3 12 -2 9 4 -6 10 -25 14 -25 6z"/>
<path d="M1715 4280 c-3 -5 3 -7 12 -5 10 1 25 -2 33 -8 12 -9 13 -9 3 3 -15
16 -41 22 -48 10z"/>
<path d="M3259 4273 c-13 -16 -12 -17 4 -4 16 13 21 21 13 21 -2 0 -10 -8 -17
-17z"/>
<path d="M3410 4280 c0 -5 5 -10 11 -10 5 0 7 5 4 10 -3 6 -8 10 -11 10 -2 0
-4 -4 -4 -10z"/>
<path d="M1868 4273 c7 -3 16 -2 19 1 4 3 -2 6 -13 5 -11 0 -14 -3 -6 -6z"/>
<path d="M1830 4260 c0 -5 5 -10 10 -10 6 0 10 5 10 10 0 6 -4 10 -10 10 -5 0
-10 -4 -10 -10z"/>
<path d="M1895 4261 c-2 -5 7 -8 20 -8 14 0 25 2 25 6 0 10 -39 11 -45 2z"/>
<path d="M1734 4240 c0 -13 4 -16 10 -10 7 7 7 13 0 20 -6 6 -10 3 -10 -10z"/>
<path d="M3056 4245 c4 -8 8 -15 10 -15 2 0 4 7 4 15 0 8 -4 15 -10 15 -5 0
-7 -7 -4 -15z"/>
<path d="M3096 4241 c3 -13 2 -21 -3 -18 -5 3 -15 1 -23 -4 -12 -7 -10 -8 7
-6 31 4 37 13 23 34 -10 16 -10 15 -4 -6z"/>
<path d="M3136 4243 c-4 -9 -2 -21 4 -27 8 -8 9 -6 4 8 -5 13 -4 17 4 12 8 -5
10 -2 6 8 -8 20 -10 20 -18 -1z"/>
<path d="M1760 4246 c0 -2 8 -10 18 -17 15 -13 16 -12 3 4 -13 16 -21 21 -21
13z"/>
<path d="M1850 4240 c-8 -5 -10 -10 -5 -10 6 0 17 5 25 10 8 5 11 10 5 10 -5
0 -17 -5 -25 -10z"/>
<path d="M1910 4233 c8 -3 19 -11 23 -17 6 -7 7 -6 4 4 -2 8 -12 16 -23 17
-13 2 -15 1 -4 -4z"/>
<path d="M1675 4221 c-3 -5 -2 -12 3 -15 5 -3 9 1 9 9 0 17 -3 19 -12 6z"/>
<path d="M1870 4220 c0 -5 5 -10 10 -10 6 0 10 5 10 10 0 6 -4 10 -10 10 -5 0
-10 -4 -10 -10z"/>
<path d="M3335 4220 c3 -5 8 -10 11 -10 2 0 4 5 4 10 0 6 -5 10 -11 10 -5 0
-7 -4 -4 -10z"/>
<path d="M1784 4198 l-19 -23 23 19 c21 18 27 26 19 26 -2 0 -12 -10 -23 -22z"/>
<path d="M1904 4205 c-4 -8 -10 -13 -14 -10 -5 3 -12 0 -16 -7 -4 -7 -4 -10 1
-6 4 4 14 3 22 -4 7 -6 16 -8 20 -4 3 3 1 6 -6 6 -9 0 -9 5 -1 20 6 11 8 20 5
20 -3 0 -8 -7 -11 -15z"/>
<path d="M1814 4198 c-4 -7 -3 -8 4 -4 7 4 12 2 12 -3 0 -6 5 -11 10 -11 15 0
12 17 -5 23 -8 4 -17 1 -21 -5z"/>
<path d="M3122 4196 c7 -8 15 -12 17 -11 5 6 -10 25 -20 25 -5 0 -4 -6 3 -14z"/>
<path d="M3160 4200 c-8 -5 -10 -10 -5 -10 6 0 17 5 25 10 8 5 11 10 5 10 -5
0 -17 -5 -25 -10z"/>
<path d="M3204 4202 c4 -3 14 -7 22 -8 9 -1 13 0 10 4 -4 3 -14 7 -22 8 -9 1
-13 0 -10 -4z"/>
<path d="M3515 4200 c-3 -5 -1 -10 4 -10 6 0 11 5 11 10 0 6 -2 10 -4 10 -3 0
-8 -4 -11 -10z"/>
<path d="M1926 4185 c3 -8 10 -15 15 -15 5 0 9 -5 9 -11 0 -6 -7 -8 -17 -5
-15 6 -14 4 2 -14 13 -14 22 -17 29 -10 13 13 29 13 21 1 -11 -19 -63 -39 -73
-29 -7 7 -14 3 -22 -12 -6 -12 -9 -24 -7 -27 3 -2 8 5 12 16 3 12 10 19 15 16
5 -3 6 -13 3 -22 -5 -12 0 -10 15 5 12 12 28 22 34 22 7 0 0 -11 -15 -25 -29
-28 -38 -48 -9 -23 9 9 29 15 43 13 30 -3 36 21 7 31 -10 3 -16 10 -12 15 4 6
11 6 19 -1 10 -8 13 -7 11 4 -1 9 -5 19 -9 22 -13 14 -7 26 7 15 12 -10 14 -9
11 6 -3 23 -22 19 -46 -10 -10 -12 -18 -17 -19 -11 0 5 4 14 9 20 6 5 0 16
-15 27 -19 14 -23 15 -18 2z m64 -105 c0 -5 -4 -10 -10 -10 -5 0 -10 5 -10 10
0 6 5 10 10 10 6 0 10 -4 10 -10z"/>
<path d="M3053 4174 c-15 -14 -23 -23 -16 -20 6 3 13 3 16 -1 2 -5 2 -3 1 4
-3 11 24 28 39 24 5 -1 6 3 2 9 -9 14 -10 13 -42 -16z"/>
<path d="M3355 4191 c-3 -5 -2 -12 3 -15 5 -3 9 1 9 9 0 17 -3 19 -12 6z"/>
<path d="M3110 4181 c0 -6 4 -13 10 -16 6 -3 7 1 4 9 -7 18 -14 21 -14 7z"/>
<path d="M3187 4179 c7 -7 15 -10 18 -7 3 3 -2 9 -12 12 -14 6 -15 5 -6 -5z"/>
<path d="M1851 4165 c4 -3 19 -8 35 -11 16 -3 26 -2 23 1 -4 3 -19 8 -35 11
-16 3 -26 2 -23 -1z"/>
<path d="M3091 4153 c12 -15 12 -16 -4 -10 -11 4 -16 3 -12 -3 3 -6 1 -10 -6
-10 -7 0 -10 -3 -7 -6 12 -11 47 16 42 31 -4 8 -11 15 -16 15 -6 0 -4 -8 3
-17z"/>
<path d="M3171 4154 c0 -11 3 -14 6 -6 3 7 2 16 -1 19 -3 4 -6 -2 -5 -13z"/>
<path d="M3253 4155 c0 -8 4 -12 9 -9 5 3 6 10 3 15 -9 13 -12 11 -12 -6z"/>
<path d="M3190 4156 c0 -2 8 -10 18 -17 15 -13 16 -12 3 4 -13 16 -21 21 -21
13z"/>
<path d="M1793 4130 c19 -25 20 -26 14 -8 -3 9 -1 19 6 21 7 3 2 4 -10 4 -18
-1 -20 -4 -10 -17z"/>
<path d="M1830 4146 c0 -2 9 -6 20 -9 11 -3 18 -1 14 4 -5 9 -34 13 -34 5z"/>
<path d="M3116 4135 c-9 -26 -7 -32 5 -12 6 10 9 21 6 23 -2 3 -7 -2 -11 -11z"/>
<path d="M3314 4142 c4 -3 14 -7 22 -8 9 -1 13 0 10 4 -4 3 -14 7 -22 8 -9 1
-13 0 -10 -4z"/>
<path d="M1876 4125 c-3 -8 -1 -15 4 -15 6 0 10 7 10 15 0 8 -2 15 -4 15 -2 0
-6 -7 -10 -15z"/>
<path d="M1910 4131 c0 -5 5 -13 10 -16 6 -3 10 -2 10 4 0 5 -4 13 -10 16 -5
3 -10 2 -10 -4z"/>
<path d="M3020 4125 c14 -17 30 -20 30 -4 0 5 -4 7 -10 4 -5 -3 -10 -1 -10 4
0 6 -5 11 -11 11 -8 0 -8 -5 1 -15z"/>
<path d="M1760 4126 c0 -2 8 -10 18 -17 15 -13 16 -12 3 4 -13 16 -21 21 -21
13z"/>
<path d="M1856 4097 c3 -10 9 -15 12 -12 3 3 0 11 -7 18 -10 9 -11 8 -5 -6z"/>
<path d="M3053 4093 c-8 -21 2 -36 28 -40 18 -2 20 -1 9 6 -8 5 -18 7 -22 5
-4 -3 -8 4 -8 16 0 12 4 19 8 16 4 -2 14 -1 22 4 11 7 9 9 -9 7 -13 -1 -25 -7
-28 -14z"/>
<path d="M3290 4100 c0 -5 5 -10 11 -10 5 0 7 5 4 10 -3 6 -8 10 -11 10 -2 0
-4 -4 -4 -10z"/>
<path d="M3234 4089 c-3 -6 -2 -15 3 -20 5 -5 9 -1 9 11 0 23 -2 24 -12 9z"/>
<path d="M1733 4076 c-3 -6 -3 -8 2 -4 4 4 13 3 20 -2 8 -7 12 -5 12 3 0 16
-25 18 -34 3z"/>
<path d="M3090 4080 c0 -5 5 -10 10 -10 6 0 10 5 10 10 0 6 -4 10 -10 10 -5 0
-10 -4 -10 -10z"/>
<path d="M3124 4083 c4 -4 16 -8 28 -10 12 -2 19 -1 16 2 -3 3 -16 8 -28 10
-12 2 -20 1 -16 -2z"/>
<path d="M1788 4053 c7 -3 16 -2 19 1 4 3 -2 6 -13 5 -11 0 -14 -3 -6 -6z"/>
<path d="M1839 4058 c-6 -12 -5 -48 1 -48 4 0 7 11 6 25 -1 22 -3 30 -7 23z"/>
<path d="M1736 4038 c3 -5 10 -6 15 -3 13 9 11 12 -6 12 -8 0 -12 -4 -9 -9z"/>
<path d="M1890 4040 c0 -5 5 -10 10 -10 6 0 10 5 10 10 0 6 -4 10 -10 10 -5 0
-10 -4 -10 -10z"/>
<path d="M1943 4036 c-8 -10 -8 -17 -1 -24 8 -8 8 -16 -2 -27 -7 -9 -8 -15 -2
-15 6 0 12 6 15 13 2 6 8 9 12 5 4 -4 2 -14 -4 -22 -10 -12 -8 -16 8 -21 13
-4 18 -12 15 -23 -5 -14 -4 -15 5 -2 8 11 7 18 -4 26 -18 14 -20 28 -2 17 6
-4 4 5 -6 20 -17 27 -12 36 11 17 9 -7 9 -7 2 2 -14 16 -13 31 2 22 6 -4 8 -3
4 4 -3 5 0 13 6 15 9 4 8 6 -2 6 -8 1 -21 -8 -28 -20 -7 -12 -16 -18 -19 -15
-3 3 0 12 7 21 15 18 0 20 -17 1z"/>
<path d="M3132 4041 c-11 -7 -11 -9 0 -14 9 -3 15 1 15 9 0 8 -1 14 -1 14 -1
0 -7 -4 -14 -9z"/>
<path d="M3030 4020 c0 -5 5 -10 10 -10 6 0 10 5 10 10 0 6 -4 10 -10 10 -5 0
-10 -4 -10 -10z"/>
<path d="M1880 4014 c0 -5 6 -18 13 -28 12 -16 14 -17 27 -1 11 13 11 18 0 28
-10 10 -12 9 -7 -5 9 -26 -6 -31 -20 -6 -7 13 -12 18 -13 12z"/>
<path d="M3067 4009 c-9 -6 -15 -14 -12 -20 4 -5 -3 -9 -14 -9 -12 0 -20 5
-18 11 1 6 -4 14 -10 16 -18 6 -16 -12 2 -27 15 -13 47 -10 45 3 -1 5 7 15 17
23 21 16 16 18 -10 3z"/>
<path d="M1777 3991 c-10 -14 -10 -14 4 -4 9 7 18 10 21 7 3 -3 8 -1 12 4 9
16 -24 9 -37 -7z"/>
<path d="M3127 3997 c3 -4 8 -6 11 -3 3 3 10 1 17 -4 8 -7 12 -6 12 3 0 7 -11
13 -23 13 -12 0 -20 -4 -17 -9z"/>
<path d="M1826 3983 c-6 -14 -5 -15 5 -6 7 7 10 15 7 18 -3 3 -9 -2 -12 -12z"/>
<path d="M1871 3985 c1 -19 18 -51 18 -35 0 8 -4 22 -9 30 -5 8 -9 11 -9 5z"/>
<path d="M1795 3970 c-4 -6 -11 -7 -17 -4 -7 4 -8 2 -4 -5 6 -9 11 -9 22 0 14
11 18 19 10 19 -3 0 -8 -5 -11 -10z"/>
<path d="M3132 3960 c0 -14 2 -19 5 -12 2 6 2 18 0 25 -3 6 -5 1 -5 -13z"/>
<path d="M1844 3955 c-4 -8 -10 -12 -15 -9 -5 3 -6 -2 -3 -11 7 -18 7 -18 23
13 6 12 9 22 6 22 -3 0 -8 -7 -11 -15z"/>
<path d="M1910 3948 c0 -6 3 -9 6 -5 3 3 15 -3 27 -13 11 -11 23 -18 25 -15 5
5 -39 44 -50 45 -5 0 -8 -5 -8 -12z"/>
<path d="M3005 3940 c3 -5 11 -10 16 -10 6 0 7 5 4 10 -3 6 -11 10 -16 10 -6
0 -7 -4 -4 -10z"/>
<path d="M3055 3940 c-3 -6 1 -7 9 -4 18 7 21 14 7 14 -6 0 -13 -4 -16 -10z"/>
<path d="M3234 3942 c4 -3 14 -7 22 -8 9 -1 13 0 10 4 -4 3 -14 7 -22 8 -9 1
-13 0 -10 -4z"/>
<path d="M1670 3919 c0 -5 5 -7 10 -4 6 3 10 8 10 11 0 2 -4 4 -10 4 -5 0 -10
-5 -10 -11z"/>
<path d="M1870 3920 c0 -6 7 -13 16 -17 15 -6 15 -8 -2 -20 -10 -7 -13 -13 -7
-13 6 0 15 6 21 13 9 10 6 17 -8 30 -11 9 -20 12 -20 7z"/>
<path d="M1919 3909 c18 -11 35 -18 38 -15 5 5 -50 36 -64 36 -4 0 7 -9 26
-21z"/>
<path d="M3130 3921 c0 -6 4 -13 10 -16 6 -3 7 1 4 9 -7 18 -14 21 -14 7z"/>
<path d="M3038 3913 c13 -3 19 -9 16 -15 -4 -7 -2 -8 5 -4 17 11 3 26 -22 25
-22 -2 -22 -2 1 -6z"/>
<path d="M1827 3903 c-3 -5 5 -8 18 -8 13 0 21 3 18 8 -2 4 -10 7 -18 7 -8 0
-16 -3 -18 -7z"/>
<path d="M2983 3895 c-3 -9 -3 -19 1 -22 3 -4 6 1 6 11 0 9 5 14 10 11 6 -3
10 -1 10 4 0 17 -20 13 -27 -4z"/>
<path d="M1676 3882 c-3 -5 1 -9 9 -9 8 0 12 4 9 9 -3 4 -7 8 -9 8 -2 0 -6 -4
-9 -8z"/>
<path d="M1776 3878 c3 -4 11 -5 19 -1 21 7 19 12 -4 10 -11 0 -18 -5 -15 -9z"/>
<path d="M1906 3871 c-10 -11 -14 -25 -10 -36 5 -11 3 -16 -2 -12 -6 3 -16 1
-24 -4 -11 -7 -8 -8 10 -5 19 3 24 9 23 25 -2 12 1 20 6 17 4 -3 17 1 27 9 19
15 19 15 0 8 -13 -4 -17 -3 -12 5 11 18 1 14 -18 -7z"/>
<path d="M3060 3880 c-9 -6 -10 -10 -3 -10 6 0 15 5 18 10 8 12 4 12 -15 0z"/>
<path d="M1837 3849 c12 -12 25 -20 28 -17 3 3 -7 13 -22 23 l-28 17 22 -23z"/>
<path d="M3037 3853 c-10 -10 -8 -23 4 -23 5 0 8 4 5 9 -4 5 0 12 6 14 7 3 8
6 2 6 -6 1 -14 -2 -17 -6z"/>
<path d="M1799 3840 c-1 -5 -2 -18 -3 -27 -1 -10 -4 -23 -8 -28 -4 -6 3 -12
15 -12 12 -1 17 1 11 5 -6 4 -10 22 -8 40 1 17 1 32 -2 32 -2 0 -5 -4 -5 -10z"/>
<path d="M1922 3822 c-11 -25 -11 -25 4 -10 9 9 15 21 13 27 -2 6 -10 -2 -17
-17z"/>
<path d="M1696 3818 c3 -4 11 -5 19 -1 21 7 19 12 -4 10 -11 0 -18 -5 -15 -9z"/>
<path d="M2998 3823 c12 -2 20 -8 17 -13 -3 -5 5 -14 17 -20 20 -9 21 -9 7 2
-9 7 -16 18 -15 23 1 6 -10 11 -24 12 -22 1 -23 1 -2 -4z"/>
<path d="M3053 3816 c-4 -5 -1 -6 7 -1 10 6 12 4 6 -10 -7 -18 -6 -18 14 0 11
10 20 19 20 19 0 7 -43 -1 -47 -8z"/>
<path d="M3219 3828 c-5 -18 -6 -38 -1 -34 7 8 12 36 6 36 -2 0 -4 -1 -5 -2z"/>
<path d="M1740 3805 c0 -2 6 -8 13 -14 10 -8 14 -7 14 2 0 8 -6 14 -14 14 -7
0 -13 -1 -13 -2z"/>
<path d="M1934 3795 c-4 -8 -10 -12 -15 -9 -5 3 -9 0 -9 -5 0 -16 20 -13 26 4
4 8 9 15 13 15 4 0 8 -7 8 -15 0 -8 -4 -15 -8 -15 -5 0 -13 -10 -19 -22 -10
-22 -10 -22 4 -4 8 10 19 15 25 12 5 -4 12 -2 15 3 4 5 2 12 -3 16 -6 3 -8 12
-4 20 3 10 -1 15 -11 15 -9 0 -19 -7 -22 -15z"/>
<path d="M2991 3793 c7 -12 15 -20 18 -17 3 2 -3 12 -13 22 -17 16 -18 16 -5
-5z"/>
<path d="M3106 3802 c-2 -4 4 -8 14 -8 10 0 16 4 14 8 -3 4 -9 8 -14 8 -5 0
-11 -4 -14 -8z"/>
<path d="M1878 3793 c7 -3 16 -2 19 1 4 3 -2 6 -13 5 -11 0 -14 -3 -6 -6z"/>
<path d="M1841 3781 c-9 -6 -10 -11 -2 -15 6 -4 11 -2 11 4 0 6 5 8 12 4 7 -4
8 -3 4 4 -8 14 -7 14 -25 3z"/>
<path d="M2970 3781 c0 -5 5 -13 10 -16 6 -3 10 -2 10 4 0 5 -4 13 -10 16 -5
3 -10 2 -10 -4z"/>
<path d="M1746 3762 c-3 -5 1 -9 9 -9 8 0 12 4 9 9 -3 4 -7 8 -9 8 -2 0 -6 -4
-9 -8z"/>
<path d="M1875 3760 c-8 -13 4 -32 15 -25 5 3 10 -3 13 -12 3 -14 4 -13 3 2
-1 11 -7 19 -14 18 -16 -4 -16 14 1 20 9 4 9 6 0 6 -6 1 -15 -3 -18 -9z"/>
<path d="M2905 3760 c-3 -4 1 -13 9 -19 10 -9 15 -8 20 4 3 8 10 15 16 15 7 0
7 -6 -1 -21 -7 -14 -17 -19 -30 -16 -10 3 -17 1 -13 -4 9 -16 32 -10 48 13 8
12 13 24 11 28 -6 10 -54 10 -60 0z"/>
<path d="M3028 3763 c7 -3 16 -2 19 1 4 3 -2 6 -13 5 -11 0 -14 -3 -6 -6z"/>
<path d="M1765 3720 c10 -11 20 -20 23 -20 3 0 -3 9 -13 20 -10 11 -20 20 -23
20 -3 0 3 -9 13 -20z"/>
<path d="M1815 3729 c-4 -6 -5 -12 -2 -15 2 -3 7 2 10 11 7 17 1 20 -8 4z"/>
<path d="M1850 3720 c0 -5 5 -10 10 -10 6 0 10 5 10 10 0 6 -4 10 -10 10 -5 0
-10 -4 -10 -10z"/>
<path d="M2999 3713 c-12 -16 -12 -17 2 -6 9 7 19 10 22 6 4 -3 7 -1 7 5 0 17
-16 15 -31 -5z"/>
<path d="M3046 3718 c4 -5 9 -7 12 -4 3 3 15 -2 26 -11 21 -18 21 -18 3 3 -16
20 -52 30 -41 12z"/>
<path d="M1693 3705 c0 -8 4 -12 9 -9 5 3 6 10 3 15 -9 13 -12 11 -12 -6z"/>
<path d="M1736 3698 c3 -5 10 -6 15 -3 13 9 11 12 -6 12 -8 0 -12 -4 -9 -9z"/>
<path d="M1879 3708 c0 -2 -2 -13 -5 -26 -3 -19 -2 -21 10 -10 8 7 10 15 5 16
-5 2 -7 8 -3 13 3 5 3 9 0 9 -3 0 -6 -1 -7 -2z"/>
<path d="M1812 3680 c0 -14 2 -19 5 -12 2 6 2 18 0 25 -3 6 -5 1 -5 -13z"/>
<path d="M3034 3671 c0 -16 3 -27 6 -25 7 8 7 54 0 54 -4 0 -7 -13 -6 -29z"/>
<path d="M1910 3687 c0 -4 6 -16 13 -27 10 -17 9 -22 -3 -30 -8 -5 -11 -13 -6
-17 5 -4 11 -2 13 5 3 6 9 10 14 7 5 -4 6 2 2 12 -8 22 -33 60 -33 50z"/>
<path d="M2975 3681 c-3 -5 0 -13 6 -17 8 -5 9 -3 4 6 -6 9 -1 10 16 5 19 -5
21 -4 9 4 -19 13 -27 14 -35 2z"/>
<path d="M1890 3661 c0 -5 7 -12 16 -15 14 -5 15 -4 4 9 -14 17 -20 19 -20 6z"/>
<path d="M2946 3654 c-4 -9 -4 -19 -1 -22 3 -3 5 0 5 6 0 7 5 12 11 12 5 0 7
-4 4 -10 -3 -6 1 -7 10 -4 9 4 15 7 13 8 -2 1 -10 7 -19 14 -14 10 -18 10 -23
-4z"/>
<path d="M1860 3640 c8 -5 22 -9 30 -9 10 0 8 3 -5 9 -27 12 -43 12 -25 0z"/>
<path d="M3054 3638 c-4 -7 -4 -10 1 -6 4 4 15 2 24 -5 14 -11 14 -10 2 6 -16
20 -18 21 -27 5z"/>
<path d="M2987 3628 c-14 -12 -14 -15 -2 -32 8 -11 15 -15 15 -10 0 6 -6 16
-12 23 -11 11 -10 13 5 8 12 -5 16 -3 11 5 -5 8 -2 9 10 5 10 -4 15 -3 11 3
-8 13 -18 13 -38 -2z"/>
<path d="M1686 3618 c3 -5 10 -6 15 -3 13 9 11 12 -6 12 -8 0 -12 -4 -9 -9z"/>
<path d="M1840 3626 c0 -2 7 -7 16 -10 8 -3 12 -2 9 4 -6 10 -25 14 -25 6z"/>
<path d="M3106 3618 c3 -5 10 -6 15 -3 13 9 11 12 -6 12 -8 0 -12 -4 -9 -9z"/>
<path d="M3051 3613 c-1 -17 16 -25 25 -12 4 7 3 9 -4 5 -5 -3 -13 0 -15 6 -4
9 -6 10 -6 1z"/>
<path d="M1759 3593 c-13 -16 -12 -17 4 -4 9 7 17 15 17 17 0 8 -8 3 -21 -13z"/>
<path d="M1790 3600 c0 -5 5 -10 10 -10 6 0 10 5 10 10 0 6 -4 10 -10 10 -5 0
-10 -4 -10 -10z"/>
<path d="M1879 3603 c-1 -5 -1 -12 0 -17 1 -5 -6 -6 -16 -2 -16 5 -15 4 2 -9
16 -13 21 -13 33 -1 8 8 11 19 8 25 -8 13 -25 15 -27 4z m21 -12 c0 -6 -4 -12
-8 -15 -5 -3 -9 1 -9 9 0 8 4 15 9 15 4 0 8 -4 8 -9z"/>
<path d="M2950 3590 c-13 -8 -12 -10 3 -10 9 0 17 5 17 10 0 12 -1 12 -20 0z"/>
<path d="M3030 3581 c0 -6 4 -12 8 -15 5 -3 9 1 9 9 0 8 -4 15 -9 15 -4 0 -8
-4 -8 -9z"/>
<path d="M3173 3569 c-2 -23 3 -25 10 -4 4 8 3 16 -1 19 -4 3 -9 -4 -9 -15z"/>
<path d="M1675 3571 c-3 -5 -2 -12 3 -15 5 -3 9 1 9 9 0 17 -3 19 -12 6z"/>
<path d="M1920 3570 c-11 -7 -12 -12 -4 -20 9 -9 14 -9 18 -1 4 6 4 11 -1 11
-4 0 -1 5 7 10 8 5 11 10 5 10 -5 0 -17 -5 -25 -10z"/>
<path d="M1770 3561 c0 -6 4 -12 8 -15 5 -3 9 1 9 9 0 8 -4 15 -9 15 -4 0 -8
-4 -8 -9z"/>
<path d="M1835 3560 c-3 -5 -1 -10 4 -10 6 0 11 5 11 10 0 6 -2 10 -4 10 -3 0
-8 -4 -11 -10z"/>
<path d="M2940 3561 c0 -6 5 -11 11 -11 5 0 7 -4 4 -10 -3 -6 1 -7 10 -4 9 4
15 7 13 8 -2 1 -11 8 -20 15 -12 9 -18 10 -18 2z"/>
<path d="M2980 3560 c8 -5 20 -10 25 -10 6 0 3 5 -5 10 -8 5 -19 10 -25 10 -5
0 -3 -5 5 -10z"/>
<path d="M1890 3541 c0 -5 7 -12 16 -15 14 -5 15 -4 4 9 -14 17 -20 19 -20 6z"/>
<path d="M1862 3524 c-7 -8 -8 -14 -3 -14 10 0 25 19 20 25 -2 1 -10 -3 -17
-11z"/>
<path d="M3113 3525 c0 -8 4 -15 9 -15 4 0 8 4 8 9 0 6 -4 12 -8 15 -5 3 -9
-1 -9 -9z"/>
<path d="M3156 3527 c3 -10 9 -15 12 -12 3 3 0 11 -7 18 -10 9 -11 8 -5 -6z"/>
<path d="M2970 3526 c0 -2 7 -7 16 -10 8 -3 12 -2 9 4 -6 10 -25 14 -25 6z"/>
<path d="M3016 3513 c-6 -14 -5 -15 5 -6 7 7 10 15 7 18 -3 3 -9 -2 -12 -12z"/>
<path d="M1876 3505 c-16 -12 -17 -15 -4 -15 9 0 18 7 22 15 7 18 6 18 -18 0z"/>
<path d="M3069 3503 c-13 -16 -12 -17 4 -4 16 13 21 21 13 21 -2 0 -10 -8 -17
-17z"/>
<path d="M1750 3506 c0 -2 7 -7 16 -10 8 -3 12 -2 9 4 -6 10 -25 14 -25 6z"/>
<path d="M1836 3498 c5 -7 2 -9 -8 -6 -8 4 -15 0 -15 -7 0 -10 5 -11 19 -4 16
9 17 29 2 29 -3 0 -2 -5 2 -12z"/>
<path d="M1906 3495 c-6 -17 2 -45 13 -45 4 0 8 7 8 15 0 8 -4 12 -9 9 -4 -3
-8 -1 -8 5 0 5 5 11 12 13 8 3 9 6 1 11 -6 4 -13 0 -17 -8z"/>
<path d="M2990 3495 c5 -22 -1 -36 -12 -29 -7 4 -8 3 -4 -4 4 -6 13 -9 20 -6
15 6 16 28 2 41 -4 4 -7 4 -6 -2z"/>
<path d="M1843 3464 c9 -3 15 -9 12 -14 -9 -14 17 -60 34 -60 12 0 11 3 -4 14
-10 7 -19 24 -20 37 -1 16 -8 25 -21 26 -16 2 -16 1 -1 -3z"/>
<path d="M2936 3462 c-6 -11 16 -37 39 -45 18 -7 19 -6 3 6 -10 8 -14 17 -10
21 4 4 3 7 -3 6 -21 -5 -29 1 -15 10 9 6 10 10 3 10 -6 0 -14 -3 -17 -8z"/>
<path d="M3054 3449 c-3 -6 -2 -15 3 -20 5 -5 9 -1 9 11 0 23 -2 24 -12 9z"/>
<path d="M1758 3439 c-6 -4 4 -6 21 -5 17 0 31 4 31 8 0 8 -37 6 -52 -3z"/>
<path d="M1880 3440 c0 -5 5 -10 10 -10 6 0 10 5 10 10 0 6 -4 10 -10 10 -5 0
-10 -4 -10 -10z"/>
<path d="M1827 3415 c3 -8 9 -12 14 -9 12 7 11 11 -5 17 -10 4 -13 1 -9 -8z"/>
<path d="M3126 3418 c3 -5 10 -6 15 -3 13 9 11 12 -6 12 -8 0 -12 -4 -9 -9z"/>
<path d="M1765 3400 c10 -11 20 -20 23 -20 3 0 -3 9 -13 20 -10 11 -20 20 -23
20 -3 0 3 -9 13 -20z"/>
<path d="M2890 3390 c-6 -11 -15 -18 -20 -15 -6 3 -7 -1 -4 -9 3 -9 10 -16 16
-16 5 0 7 4 4 8 -3 5 4 19 15 30 11 12 15 22 10 22 -6 0 -15 -9 -21 -20z"/>
<path d="M2930 3405 c0 -7 30 -13 34 -7 3 4 -4 9 -15 9 -10 1 -19 0 -19 -2z"/>
<path d="M3011 3394 c0 -11 3 -14 6 -6 3 7 2 16 -1 19 -3 4 -6 -2 -5 -13z"/>
<path d="M1693 3385 c0 -8 4 -12 9 -9 5 3 6 10 3 15 -9 13 -12 11 -12 -6z"/>
<path d="M1890 3370 c-8 -5 -11 -12 -7 -17 5 -4 12 -1 16 6 7 11 10 11 14 0 3
-9 6 -10 6 -2 1 17 -13 23 -29 13z"/>
<path d="M3035 3370 c-4 -6 -10 -8 -14 -6 -4 3 -8 -1 -8 -9 0 -10 4 -12 12 -5
7 5 14 8 17 5 2 -3 5 2 5 10 0 18 -3 19 -12 5z"/>
<path d="M1753 3356 c-3 -6 -3 -8 2 -4 4 4 13 3 20 -2 8 -7 12 -5 12 3 0 16
-25 18 -34 3z"/>
<path d="M1745 3320 c-3 -6 1 -7 9 -4 18 7 21 14 7 14 -6 0 -13 -4 -16 -10z"/>
<path d="M1788 3318 c10 -13 10 -17 0 -21 -9 -4 -9 -6 -1 -6 20 -2 24 16 5 30
-15 13 -16 12 -4 -3z"/>
<path d="M1835 3320 c3 -5 8 -10 11 -10 2 0 4 5 4 10 0 6 -5 10 -11 10 -5 0
-7 -4 -4 -10z"/>
<path d="M3011 3313 c7 -12 15 -20 18 -17 3 2 -3 12 -13 22 -17 16 -18 16 -5
-5z"/>
<path d="M1690 3299 c0 -5 5 -7 10 -4 6 3 10 8 10 11 0 2 -4 4 -10 4 -5 0 -10
-5 -10 -11z"/>
<path d="M2955 3299 c-4 -6 -5 -12 -2 -15 2 -3 7 2 10 11 7 17 1 20 -8 4z"/>
<path d="M3190 3306 c0 -2 7 -7 16 -10 8 -3 12 -2 9 4 -6 10 -25 14 -25 6z"/>
<path d="M2920 3294 c0 -6 6 -16 13 -23 10 -11 9 -13 -6 -8 -10 4 -16 3 -13
-2 3 -5 -1 -11 -9 -15 -8 -3 -15 -11 -14 -18 0 -10 2 -10 6 0 2 6 9 12 14 12
6 0 7 -5 3 -12 -5 -7 -3 -8 5 -4 7 5 10 10 7 14 -3 3 1 10 9 16 12 10 12 14 0
30 -8 11 -15 15 -15 10z"/>
<path d="M3149 3283 c-13 -16 -12 -17 4 -4 9 7 17 15 17 17 0 8 -8 3 -21 -13z"/>
<path d="M1800 3280 c-9 -6 -10 -10 -3 -10 6 0 15 5 18 10 8 12 4 12 -15 0z"/>
<path d="M1834 3282 c3 -5 0 -13 -6 -15 -8 -3 -6 -6 5 -6 19 -1 23 14 5 25 -6
4 -8 3 -4 -4z"/>
<path d="M2970 3286 c0 -2 7 -7 16 -10 8 -3 12 -2 9 4 -6 10 -25 14 -25 6z"/>
<path d="M3040 3280 c-9 -6 -10 -10 -3 -10 6 0 15 5 18 10 8 12 4 12 -15 0z"/>
<path d="M1803 3238 c-11 -19 -12 -37 -3 -43 5 -3 7 3 5 12 -1 10 2 24 8 31 5
6 7 12 4 12 -3 0 -9 -6 -14 -12z"/>
<path d="M1696 3222 c-3 -4 4 -9 15 -9 23 -2 25 3 4 10 -8 4 -16 3 -19 -1z"/>
<path d="M2936 3221 c-3 -4 4 -17 17 -27 l22 -19 -18 21 c-14 17 -15 23 -5 27
9 4 9 6 1 6 -6 1 -14 -3 -17 -8z"/>
<path d="M1817 3191 c-4 -17 -3 -21 5 -13 5 5 8 16 6 23 -3 8 -7 3 -11 -10z"/>
<path d="M2985 3199 c-3 -4 2 -6 10 -5 21 3 28 13 10 13 -9 0 -18 -4 -20 -8z"/>
<path d="M3050 3179 c0 -5 5 -7 10 -4 6 3 10 8 10 11 0 2 -4 4 -10 4 -5 0 -10
-5 -10 -11z"/>
<path d="M1766 3159 c3 -5 9 -7 14 -4 5 3 13 -3 19 -12 6 -10 11 -13 11 -6 0
13 -17 26 -38 29 -6 1 -10 -2 -6 -7z"/>
<path d="M1825 3159 c-4 -6 -4 -13 -1 -16 3 -4 6 -1 6 6 0 7 5 9 10 6 6 -3 10
-1 10 4 0 14 -17 14 -25 0z"/>
<path d="M1862 3145 c-11 -13 -23 -21 -27 -17 -5 4 -5 1 -1 -5 10 -18 26 -16
26 3 0 8 5 12 10 9 6 -4 7 -12 4 -18 -4 -7 -3 -8 2 -4 7 7 15 57 8 57 -1 0
-11 -11 -22 -25z"/>
<path d="M2955 3160 c-3 -5 -1 -10 4 -10 6 0 11 5 11 10 0 6 -2 10 -4 10 -3 0
-8 -4 -11 -10z"/>
<path d="M2934 3142 c3 -5 1 -12 -6 -14 -8 -3 -9 -6 -1 -11 6 -4 13 0 17 8 3
8 0 17 -6 21 -6 4 -8 3 -4 -4z"/>
<path d="M1710 3136 c0 -2 8 -10 18 -17 15 -13 16 -12 3 4 -13 16 -21 21 -21
13z"/>
<path d="M1676 3122 c-3 -5 1 -9 9 -9 8 0 12 4 9 9 -3 4 -7 8 -9 8 -2 0 -6 -4
-9 -8z"/>
<path d="M1793 3105 c0 -8 4 -15 9 -15 4 0 8 4 8 9 0 6 -4 12 -8 15 -5 3 -9
-1 -9 -9z"/>
<path d="M1750 3106 c0 -2 7 -7 16 -10 8 -3 12 -2 9 4 -6 10 -25 14 -25 6z"/>
<path d="M2926 3085 c-9 -26 -7 -32 5 -12 6 10 9 21 6 23 -2 3 -7 -2 -11 -11z"/>
<path d="M1736 3078 c3 -5 10 -6 15 -3 13 9 11 12 -6 12 -8 0 -12 -4 -9 -9z"/>
<path d="M1830 3083 c5 -2 8 -9 4 -14 -3 -5 0 -9 6 -9 15 0 7 23 -8 26 -7 1
-8 0 -2 -3z"/>
<path d="M3075 3080 c-3 -5 -1 -10 4 -10 6 0 11 5 11 10 0 6 -2 10 -4 10 -3 0
-8 -4 -11 -10z"/>
<path d="M1790 3065 c-11 -13 -10 -14 4 -9 9 3 16 10 16 15 0 13 -6 11 -20 -6z"/>
<path d="M1800 3040 c-8 -5 -10 -10 -5 -10 6 0 17 5 25 10 8 5 11 10 5 10 -5
0 -17 -5 -25 -10z"/>
<path d="M2910 3041 c0 -10 19 -25 25 -20 1 2 -3 10 -11 17 -8 7 -14 8 -14 3z"/>
<path d="M2950 3041 c0 -6 4 -12 8 -15 5 -3 9 1 9 9 0 8 -4 15 -9 15 -4 0 -8
-4 -8 -9z"/>
<path d="M3006 3042 c-3 -5 1 -9 9 -9 8 0 12 4 9 9 -3 4 -7 8 -9 8 -2 0 -6 -4
-9 -8z"/>
<path d="M1754 3004 c0 -20 11 -25 11 -6 0 4 3 12 7 18 4 6 1 11 -5 11 -7 0
-13 -11 -13 -23z"/>
<path d="M1832 3016 c7 -8 15 -12 17 -11 5 6 -10 25 -20 25 -5 0 -4 -6 3 -14z"/>
<path d="M2994 3013 c16 -20 36 -23 36 -6 0 4 -3 3 -7 0 -3 -4 -16 1 -27 10
-21 18 -21 18 -2 -4z"/>
<path d="M1810 2995 c0 -8 2 -15 4 -15 2 0 6 7 10 15 3 8 1 15 -4 15 -6 0 -10
-7 -10 -15z"/>
<path d="M2960 3006 c0 -2 8 -10 18 -17 15 -13 16 -12 3 4 -13 16 -21 21 -21
13z"/>
<path d="M2815 2990 c-3 -6 1 -7 9 -4 18 7 21 14 7 14 -6 0 -13 -4 -16 -10z"/>
<path d="M1781 2964 c0 -11 3 -14 6 -6 3 7 2 16 -1 19 -3 4 -6 -2 -5 -13z"/>
<path d="M2819 2963 c-13 -17 -13 -17 5 -3 16 13 20 12 36 -7 17 -21 30 -21
30 0 0 6 -3 8 -6 4 -4 -3 -13 0 -21 8 -19 19 -28 19 -44 -2z"/>
<path d="M2913 2964 c-3 -8 -2 -19 3 -24 5 -5 9 1 9 16 0 28 -3 30 -12 8z"/>
<path d="M1816 2956 c6 -15 4 -17 -6 -11 -9 6 -11 4 -5 -4 5 -9 10 -10 18 -2
8 8 7 14 -2 24 -10 10 -11 8 -5 -7z"/>
<path d="M1744 2942 c4 -3 14 -7 22 -8 9 -1 13 0 10 4 -4 3 -14 7 -22 8 -9 1
-13 0 -10 -4z"/>
<path d="M1786 2922 c-3 -4 4 -9 15 -9 23 -2 25 3 4 10 -8 4 -16 3 -19 -1z"/>
<path d="M2890 2920 c0 -5 5 -10 10 -10 6 0 10 5 10 10 0 6 -4 10 -10 10 -5 0
-10 -4 -10 -10z"/>
<path d="M2950 2919 c0 -5 5 -7 10 -4 6 3 10 8 10 11 0 2 -4 4 -10 4 -5 0 -10
-5 -10 -11z"/>
<path d="M2914 2895 c-3 -8 -4 -20 -2 -27 3 -7 7 -1 10 15 6 29 1 36 -8 12z"/>
<path d="M1797 2879 c6 -23 9 -24 16 -5 3 8 0 17 -7 19 -10 4 -12 -1 -9 -14z"/>
<path d="M2930 2881 c0 -6 4 -13 10 -16 6 -3 7 1 4 9 -7 18 -14 21 -14 7z"/>
<path d="M1830 2871 c0 -5 7 -12 16 -15 14 -5 15 -4 4 9 -14 17 -20 19 -20 6z"/>
<path d="M1800 2840 c-8 -5 -10 -10 -5 -10 6 0 17 5 25 10 8 5 11 10 5 10 -5
0 -17 -5 -25 -10z"/>
<path d="M2890 2845 c0 -7 30 -13 34 -7 3 4 -4 9 -15 9 -10 1 -19 0 -19 -2z"/>
<path d="M2868 2833 c6 -2 10 -9 7 -14 -4 -5 1 -6 10 -2 13 5 14 7 3 14 -7 5
-17 8 -23 8 -5 0 -4 -3 3 -6z"/>
<path d="M1815 2820 c-8 -13 5 -13 25 0 13 8 13 10 -2 10 -9 0 -20 -4 -23 -10z"/>
<path d="M2990 2819 c0 -5 5 -7 10 -4 6 3 10 8 10 11 0 2 -4 4 -10 4 -5 0 -10
-5 -10 -11z"/>
<path d="M1773 2794 c0 -7 6 -10 14 -7 7 3 13 8 13 12 0 4 -6 8 -13 8 -8 0
-14 -6 -14 -13z"/>
<path d="M2890 2806 c0 -2 7 -7 16 -10 8 -3 12 -2 9 4 -6 10 -25 14 -25 6z"/>
<path d="M2955 2800 c3 -5 8 -10 11 -10 2 0 4 5 4 10 0 6 -5 10 -11 10 -5 0
-7 -4 -4 -10z"/>
<path d="M1710 2786 c0 -2 7 -7 16 -10 8 -3 12 -2 9 4 -6 10 -25 14 -25 6z"/>
<path d="M1794 2760 c0 -13 4 -16 10 -10 7 7 7 13 0 20 -6 6 -10 3 -10 -10z"/>
<path d="M2921 2756 c-9 -11 -9 -16 1 -22 7 -4 10 -4 6 1 -4 4 -3 14 3 22 6 7
9 13 6 13 -2 0 -10 -6 -16 -14z"/>
<path d="M3015 2751 c-3 -5 -2 -12 3 -15 5 -3 9 1 9 9 0 17 -3 19 -12 6z"/>
<path d="M2852 2738 c-17 -17 5 -53 24 -37 8 6 14 16 14 22 0 6 -7 2 -15 -9
-15 -19 -16 -19 -13 1 2 11 8 23 13 27 7 5 6 8 0 8 -6 0 -16 -5 -23 -12z"/>
<path d="M2946 2741 c-3 -4 4 -7 14 -6 27 2 33 10 10 12 -11 1 -22 -2 -24 -6z"/>
<path d="M1793 2715 c0 -8 4 -12 8 -9 4 2 10 -2 12 -8 4 -8 6 -9 6 -2 1 6 -5
17 -12 23 -10 8 -14 7 -14 -4z"/>
<path d="M1754 2712 c3 -5 0 -13 -6 -15 -9 -4 -10 -6 -1 -6 17 -1 25 16 12 25
-7 4 -9 3 -5 -4z"/>
<path d="M1636 2693 c-6 -14 -5 -15 5 -6 7 7 10 15 7 18 -3 3 -9 -2 -12 -12z"/>
<path d="M2893 2696 c-4 -5 -1 -6 7 -1 10 6 12 4 6 -10 -7 -18 -6 -18 14 0 11
10 20 19 20 19 0 7 -43 -1 -47 -8z"/>
<path d="M1780 2680 c8 -5 22 -9 30 -9 10 0 8 3 -5 9 -27 12 -43 12 -25 0z"/>
<path d="M1757 2669 c7 -7 15 -10 18 -7 3 3 -2 9 -12 12 -14 6 -15 5 -6 -5z"/>
<path d="M2870 2669 c0 -5 5 -7 10 -4 6 3 10 8 10 11 0 2 -4 4 -10 4 -5 0 -10
-5 -10 -11z"/>
<path d="M3016 2662 c-3 -5 1 -9 9 -9 8 0 12 4 9 9 -3 4 -7 8 -9 8 -2 0 -6 -4
-9 -8z"/>
<path d="M1735 2649 c-4 -6 -5 -12 -2 -15 2 -3 7 2 10 11 7 17 1 20 -8 4z"/>
<path d="M2930 2657 c0 -2 6 -10 14 -16 11 -9 16 -9 22 1 4 7 4 10 -1 6 -4 -4
-14 -3 -22 3 -7 6 -13 9 -13 6z"/>
<path d="M2845 2640 c-3 -6 1 -7 9 -4 18 7 21 14 7 14 -6 0 -13 -4 -16 -10z"/>
<path d="M1745 2620 c-3 -5 4 -7 16 -5 17 3 20 0 16 -16 -3 -12 0 -22 9 -26 8
-3 11 -10 7 -16 -4 -6 -1 -7 7 -2 11 7 10 10 -1 19 -8 6 -14 20 -14 30 0 19
-31 31 -40 16z"/>
<path d="M2859 2628 c-13 -44 -3 -64 21 -46 12 8 12 9 -3 4 -13 -4 -17 -1 -15
12 2 9 8 20 13 24 6 5 5 8 -2 8 -7 0 -13 -1 -14 -2z"/>
<path d="M2782 2604 c9 -9 21 -15 27 -13 6 2 -2 10 -17 17 -25 11 -25 11 -10
-4z"/>
<path d="M1715 2591 c-3 -5 -2 -12 3 -15 5 -3 9 1 9 9 0 17 -3 19 -12 6z"/>
<path d="M1655 2580 c3 -5 8 -10 11 -10 2 0 4 5 4 10 0 6 -5 10 -11 10 -5 0
-7 -4 -4 -10z"/>
<path d="M2824 2579 c-3 -6 -1 -16 5 -22 6 -6 11 -7 11 -2 0 5 6 1 13 -10 11
-14 16 -15 22 -5 5 8 4 11 -2 7 -6 -4 -14 0 -17 9 -3 9 -11 12 -18 8 -8 -5 -9
-2 -5 9 7 19 2 23 -9 6z"/>
<path d="M2975 2580 c-3 -5 -1 -10 4 -10 6 0 11 5 11 10 0 6 -2 10 -4 10 -3 0
-8 -4 -11 -10z"/>
<path d="M1740 2576 c0 -2 7 -7 16 -10 8 -3 12 -2 9 4 -6 10 -25 14 -25 6z"/>
<path d="M2790 2572 c0 -4 5 -13 12 -20 9 -9 9 -12 0 -12 -6 0 -15 7 -20 16
-8 15 -10 15 -15 0 -4 -10 -3 -14 3 -11 5 3 8 -4 7 -15 -1 -11 -6 -20 -11 -20
-5 0 -6 -3 -3 -7 4 -3 1 -13 -6 -22 -11 -14 -10 -14 6 -2 22 17 22 3 0 -21
-16 -18 -16 -19 3 -13 19 7 19 6 0 -9 -19 -15 -18 -16 12 -12 18 2 36 7 40 11
4 4 -2 5 -13 1 -16 -5 -21 -1 -22 14 -2 17 1 18 18 9 12 -6 23 -8 26 -5 3 3
-3 9 -13 13 -19 7 -34 22 -34 35 0 4 7 5 15 2 8 -4 15 -1 15 6 0 6 -4 9 -9 5
-5 -3 -12 -1 -15 4 -3 5 3 11 14 14 14 4 20 0 21 -11 0 -12 2 -13 6 -4 3 7 -2
21 -11 31 -9 10 -13 21 -9 24 3 4 1 7 -5 7 -7 0 -12 -4 -12 -8z"/>
<path d="M1656 2542 c-2 -4 -1 -14 4 -22 7 -11 9 -9 7 8 -1 24 -3 26 -11 14z"/>
<path d="M1765 2543 c6 -4 10 -15 10 -23 -1 -16 13 -30 30 -30 6 0 4 4 -3 9
-7 4 -15 16 -16 26 -2 11 -9 21 -17 23 -9 2 -10 0 -4 -5z"/>
<path d="M2847 2519 c7 -7 15 -10 18 -7 3 3 -2 9 -12 12 -14 6 -15 5 -6 -5z"/>
<path d="M2886 2518 c3 -4 9 -8 15 -8 5 0 9 4 9 8 0 5 -7 9 -15 9 -8 0 -12 -4
-9 -9z"/>
<path d="M1635 2491 c-3 -5 -2 -12 3 -15 5 -3 9 1 9 9 0 17 -3 19 -12 6z"/>
<path d="M1695 2489 c-4 -6 -5 -12 -2 -15 2 -3 7 2 10 11 7 17 1 20 -8 4z"/>
<path d="M2816 2491 c-4 -5 3 -7 14 -4 23 6 26 13 6 13 -8 0 -17 -4 -20 -9z"/>
<path d="M2914 2465 c1 -8 8 -21 16 -28 12 -10 12 -9 2 4 -6 9 -9 18 -6 21 3
3 1 9 -4 12 -6 3 -9 -1 -8 -9z"/>
<path d="M2840 2454 c0 -6 7 -19 16 -30 14 -18 14 -18 3 6 -14 31 -19 36 -19
24z"/>
<path d="M1627 2439 c7 -7 15 -10 18 -7 3 3 -2 9 -12 12 -14 6 -15 5 -6 -5z"/>
<path d="M1670 2440 c0 -5 5 -10 11 -10 5 0 7 5 4 10 -3 6 -8 10 -11 10 -2 0
-4 -4 -4 -10z"/>
<path d="M1714 2428 l-19 -23 23 19 c12 11 22 21 22 23 0 8 -8 2 -26 -19z"/>
<path d="M2835 2408 c4 -13 11 -27 16 -33 5 -5 4 5 -2 23 -12 36 -24 44 -14
10z"/>
<path d="M1674 2409 c-3 -6 2 -18 12 -27 17 -16 17 -16 5 0 -7 9 -10 22 -6 28
3 5 4 10 1 10 -3 0 -8 -5 -12 -11z"/>
<path d="M2765 2397 c-6 -7 -10 -19 -10 -27 0 -8 -3 -18 -8 -21 -10 -7 2 -39
15 -39 6 0 6 6 -1 14 -10 12 -8 17 8 25 16 9 22 8 29 -4 7 -13 10 -11 21 11 6
15 9 29 7 32 -3 3 -9 -6 -14 -18 -6 -16 -11 -20 -16 -11 -5 7 0 21 10 32 9 10
13 19 7 19 -5 0 -16 -11 -23 -25 -7 -14 -18 -25 -23 -25 -5 0 -2 11 7 25 17
25 10 34 -9 12z"/>
<path d="M2890 2376 c0 -2 8 -10 18 -17 15 -13 16 -12 3 4 -13 16 -21 21 -21
13z"/>
<path d="M2860 2360 c-9 -6 -10 -10 -3 -10 6 0 15 5 18 10 8 12 4 12 -15 0z"/>
<path d="M2834 2342 c3 -5 1 -12 -6 -14 -8 -3 -9 -6 -1 -11 6 -4 13 0 17 8 3
8 0 17 -6 21 -6 4 -8 3 -4 -4z"/>
<path d="M2851 2284 c0 -11 3 -14 6 -6 3 7 2 16 -1 19 -3 4 -6 -2 -5 -13z"/>
<path d="M1653 2275 c0 -8 4 -12 9 -9 4 3 8 9 8 15 0 5 -4 9 -8 9 -5 0 -9 -7
-9 -15z"/>
<path d="M1730 2260 c0 -5 5 -10 10 -10 6 0 10 -5 10 -11 0 -5 -4 -7 -10 -4
-19 12 -10 -12 12 -31 19 -15 20 -16 9 -1 -10 12 -10 21 -3 30 8 10 6 16 -9
25 -11 7 -19 8 -19 2z"/>
<path d="M2865 2259 c-3 -4 2 -6 10 -5 21 3 28 13 10 13 -9 0 -18 -4 -20 -8z"/>
<path d="M2795 2250 c-3 -6 1 -7 9 -4 18 7 21 14 7 14 -6 0 -13 -4 -16 -10z"/>
<path d="M2834 2246 c1 -8 5 -18 8 -22 4 -3 5 1 4 10 -1 8 -5 18 -8 22 -4 3
-5 -1 -4 -10z"/>
<path d="M1620 2246 c0 -2 8 -10 18 -17 15 -13 16 -12 3 4 -13 16 -21 21 -21
13z"/>
<path d="M1673 2232 c-8 -14 -8 -19 1 -19 7 0 13 9 13 19 1 10 1 18 0 18 -1 0
-7 -8 -14 -18z"/>
<path d="M1705 2239 c-4 -6 -5 -12 -2 -15 2 -3 7 2 10 11 7 17 1 20 -8 4z"/>
<path d="M2870 2230 c-9 -6 -10 -10 -3 -10 6 0 15 5 18 10 8 12 4 12 -15 0z"/>
<path d="M2798 2223 c12 -2 20 -8 17 -13 -3 -5 -1 -11 4 -14 5 -4 8 2 7 11 -2
11 -12 19 -27 20 -23 1 -23 1 -1 -4z"/>
<path d="M1710 2195 c0 -8 2 -15 4 -15 2 0 6 7 10 15 3 8 1 15 -4 15 -6 0 -10
-7 -10 -15z"/>
<path d="M2780 2201 c0 -6 5 -11 11 -11 5 0 7 -4 4 -10 -3 -5 -1 -10 4 -10 16
0 13 16 -4 30 -10 9 -15 9 -15 1z"/>
<path d="M2853 2193 c0 -8 4 -10 12 -3 6 5 21 8 33 5 12 -2 24 -1 26 3 3 4
-12 8 -33 8 -24 0 -38 -4 -38 -13z"/>
<path d="M1686 2158 c3 -4 9 -8 15 -8 5 0 9 4 9 8 0 5 -7 9 -15 9 -8 0 -12 -4
-9 -9z"/>
<path d="M2850 2165 c0 -5 5 -17 10 -25 5 -8 10 -10 10 -5 0 6 -5 17 -10 25
-5 8 -10 11 -10 5z"/>
<path d="M1655 2149 c-4 -6 -5 -12 -2 -15 2 -3 7 2 10 11 7 17 1 20 -8 4z"/>
<path d="M2745 2150 c-3 -5 -3 -15 0 -21 4 -6 -2 -13 -14 -16 -20 -5 -20 -5 2
-24 12 -10 17 -18 12 -19 -6 0 -16 5 -23 12 -8 8 -12 8 -12 1 0 -13 28 -25 41
-17 5 3 6 10 3 16 -4 6 -1 9 7 6 8 -3 14 -11 14 -19 0 -7 8 -15 18 -17 9 -2
17 1 17 7 0 6 -7 7 -17 4 -10 -4 -14 -2 -10 4 9 14 -19 37 -34 27 -7 -4 -10
-2 -7 7 3 8 12 13 21 11 21 -4 32 17 17 31 -10 9 -12 8 -6 -6 4 -13 2 -17 -6
-14 -7 2 -12 12 -12 21 2 18 -2 21 -11 6z"/>
<path d="M2806 2125 c-9 -13 -16 -28 -16 -32 0 -4 8 4 18 18 9 14 23 24 30 22
17 -6 15 4 -2 10 -8 3 -21 -4 -30 -18z"/>
<path d="M2936 2142 c-3 -5 1 -9 9 -9 8 0 12 4 9 9 -3 4 -7 8 -9 8 -2 0 -6 -4
-9 -8z"/>
<path d="M1702 2113 c-11 -24 -10 -26 1 -11 10 12 17 14 24 7 8 -8 13 -7 18 2
5 7 4 10 -3 5 -6 -3 -15 1 -20 9 -7 13 -10 11 -20 -12z"/>
<path d="M1600 2120 c-9 -6 -10 -10 -3 -10 6 0 15 5 18 10 8 12 4 12 -15 0z"/>
<path d="M1673 2115 c0 -8 4 -12 9 -9 5 3 6 10 3 15 -9 13 -12 11 -12 -6z"/>
<path d="M2880 2120 c-9 -6 -10 -10 -3 -10 6 0 15 5 18 10 8 12 4 12 -15 0z"/>
<path d="M1637 2092 c-15 -16 -15 -19 -2 -19 8 0 13 3 10 5 -3 3 0 11 6 19 17
20 5 16 -14 -5z"/>
<path d="M2814 2099 c-12 -20 12 -31 27 -12 13 17 13 17 -5 3 -18 -14 -19 -13
-13 3 7 19 2 23 -9 6z"/>
<path d="M1479 2073 c-13 -16 -12 -17 4 -4 9 7 17 15 17 17 0 8 -8 3 -21 -13z"/>
<path d="M1664 2070 c0 -13 4 -16 10 -10 7 7 7 13 0 20 -6 6 -10 3 -10 -10z"/>
<path d="M1710 2080 c0 -5 5 -10 11 -10 5 0 7 -5 3 -12 -4 -7 -3 -8 4 -4 6 4
9 13 5 21 -6 17 -23 20 -23 5z"/>
<path d="M2856 2073 c-6 -14 -5 -15 5 -6 7 7 10 15 7 18 -3 3 -9 -2 -12 -12z"/>
<path d="M1570 2059 c0 -5 5 -7 10 -4 6 3 10 8 10 11 0 2 -4 4 -10 4 -5 0 -10
-5 -10 -11z"/>
<path d="M2836 2034 c-3 -9 -11 -12 -18 -8 -7 4 -9 3 -5 -1 14 -16 33 -13 34
6 2 23 -3 24 -11 3z"/>
<path d="M2865 2020 c-3 -6 1 -7 9 -4 18 7 21 14 7 14 -6 0 -13 -4 -16 -10z"/>
<path d="M1476 2002 c-3 -5 1 -9 9 -9 8 0 12 4 9 9 -3 4 -7 8 -9 8 -2 0 -6 -4
-9 -8z"/>
<path d="M2797 2003 c-4 -3 -7 -11 -7 -17 0 -6 5 -5 12 2 6 6 9 14 7 17 -3 3
-9 2 -12 -2z"/>
<path d="M1635 1970 c-4 -6 -11 -7 -17 -4 -7 4 -8 2 -4 -5 6 -9 11 -9 22 0 14
11 18 19 10 19 -3 0 -8 -5 -11 -10z"/>
<path d="M2780 1960 c8 -5 20 -10 25 -10 6 0 3 5 -5 10 -8 5 -19 10 -25 10 -5
0 -3 -5 5 -10z"/>
<path d="M1644 1935 c-5 -13 -9 -13 -23 -3 -14 12 -15 11 -2 -4 17 -22 18 -22
31 2 6 11 8 20 5 20 -3 0 -8 -7 -11 -15z"/>
<path d="M2870 1940 c0 -5 5 -10 11 -10 5 0 7 5 4 10 -3 6 -8 10 -11 10 -2 0
-4 -4 -4 -10z"/>
<path d="M1550 1920 c0 -5 5 -10 11 -10 5 0 7 5 4 10 -3 6 -8 10 -11 10 -2 0
-4 -4 -4 -10z"/>
<path d="M1595 1910 c10 -11 20 -20 23 -20 3 0 -3 9 -13 20 -10 11 -20 20 -23
20 -3 0 3 -9 13 -20z"/>
<path d="M1667 1919 c7 -9 10 -19 6 -22 -3 -4 -1 -7 5 -7 17 0 15 16 -5 31
-16 12 -17 12 -6 -2z"/>
<path d="M2757 1897 c-3 -8 -2 -20 3 -26 5 -9 8 -4 8 13 0 29 -3 32 -11 13z"/>
<path d="M1630 1896 c0 -2 7 -9 15 -16 9 -7 15 -8 15 -2 0 5 -7 12 -15 16 -8
3 -15 4 -15 2z"/>
<path d="M2830 1879 c0 -5 5 -7 10 -4 6 3 10 8 10 11 0 2 -4 4 -10 4 -5 0 -10
-5 -10 -11z"/>
<path d="M1535 1860 c3 -5 8 -10 11 -10 2 0 4 5 4 10 0 6 -5 10 -11 10 -5 0
-7 -4 -4 -10z"/>
<path d="M1634 1851 c20 -22 26 -25 26 -13 0 4 -10 13 -22 21 -23 14 -23 14
-4 -8z"/>
<path d="M1670 1859 c0 -5 5 -7 10 -4 6 3 10 0 10 -9 0 -8 -6 -16 -12 -19 -10
-3 -10 -7 1 -20 14 -18 36 -24 27 -8 -4 5 0 12 6 15 7 3 2 3 -12 -1 -22 -5
-23 -4 -11 10 7 9 11 24 7 32 -6 17 -26 20 -26 4z"/>
<path d="M2800 1829 c0 -5 -4 -8 -9 -4 -5 3 -13 0 -17 -6 -5 -8 -3 -9 6 -4 10
6 12 3 7 -11 -7 -18 -6 -18 6 -2 8 10 17 15 21 11 4 -4 4 0 0 10 -7 19 -14 22
-14 6z"/>
<path d="M1555 1801 c-3 -5 -2 -12 3 -15 5 -3 9 1 9 9 0 17 -3 19 -12 6z"/>
<path d="M1627 1791 c-4 -17 -3 -21 5 -13 5 5 8 16 6 23 -3 8 -7 3 -11 -10z"/>
<path d="M2750 1780 c0 -5 5 -10 10 -10 6 0 10 5 10 10 0 6 -4 10 -10 10 -5 0
-10 -4 -10 -10z"/>
<path d="M2798 1776 c-22 -16 -23 -23 -3 -23 8 0 13 3 10 5 -3 3 0 11 6 19 14
16 9 16 -13 -1z"/>
<path d="M1510 1760 c0 -5 5 -10 11 -10 5 0 7 5 4 10 -3 6 -8 10 -11 10 -2 0
-4 -4 -4 -10z"/>
<path d="M1593 1763 c4 -3 1 -13 -6 -22 -11 -14 -10 -14 6 -2 20 15 22 31 5
31 -6 0 -8 -3 -5 -7z"/>
<path d="M2835 1762 c3 -3 -1 -12 -7 -21 -8 -10 -4 -9 10 3 26 23 26 23 7 23
-8 0 -13 -3 -10 -5z"/>
<path d="M1632 1719 c6 -16 12 -28 14 -26 5 5 -13 57 -20 57 -3 0 0 -14 6 -31z"/>
<path d="M1430 1719 c0 -5 5 -7 10 -4 6 3 10 8 10 11 0 2 -4 4 -10 4 -5 0 -10
-5 -10 -11z"/>
<path d="M2774 1718 c-5 -7 -3 -8 6 -3 10 6 12 4 7 -8 -4 -11 -2 -14 9 -10 11
4 12 9 3 19 -14 17 -16 17 -25 2z"/>
<path d="M1486 1702 c-3 -5 1 -9 9 -9 8 0 12 4 9 9 -3 4 -7 8 -9 8 -2 0 -6 -4
-9 -8z"/>
<path d="M1559 1693 c-13 -16 -12 -17 4 -4 9 7 17 15 17 17 0 8 -8 3 -21 -13z"/>
<path d="M1621 1690 c14 -31 19 -36 19 -24 0 6 -7 19 -16 30 -14 18 -14 18 -3
-6z"/>
<path d="M1387 1679 c7 -7 15 -10 18 -7 3 3 -2 9 -12 12 -14 6 -15 5 -6 -5z"/>
<path d="M1579 1673 c-13 -17 -13 -17 6 -3 11 8 22 16 24 17 2 2 0 3 -6 3 -6
0 -17 -8 -24 -17z"/>
<path d="M1665 1680 c3 -5 1 -10 -4 -10 -6 0 -11 -5 -11 -10 0 -6 8 -5 19 2
19 12 19 28 0 28 -6 0 -7 -4 -4 -10z"/>
<path d="M1675 1649 c-10 -15 3 -25 16 -12 7 7 7 13 1 17 -6 3 -14 1 -17 -5z"/>
<path d="M1570 1641 c0 -6 4 -13 10 -16 6 -3 7 1 4 9 -7 18 -14 21 -14 7z"/>
<path d="M1610 1640 c0 -5 5 -10 10 -10 6 0 10 5 10 10 0 6 -4 10 -10 10 -5 0
-10 -4 -10 -10z"/>
<path d="M2866 1642 c-3 -5 1 -9 9 -9 8 0 12 4 9 9 -3 4 -7 8 -9 8 -2 0 -6 -4
-9 -8z"/>
<path d="M2827 1619 c7 -7 15 -10 18 -7 3 3 -2 9 -12 12 -14 6 -15 5 -6 -5z"/>
<path d="M2791 1587 c-13 -21 -12 -21 5 -5 10 10 16 20 13 22 -3 3 -11 -5 -18
-17z"/>
<path d="M2731 1593 c-1 -17 16 -25 25 -12 4 7 3 9 -4 5 -5 -3 -13 0 -15 6 -4
9 -6 10 -6 1z"/>
<path d="M1495 1580 c-3 -5 -1 -10 4 -10 6 0 11 5 11 10 0 6 -2 10 -4 10 -3 0
-8 -4 -11 -10z"/>
<path d="M1549 1576 c5 -6 7 -19 6 -28 -2 -10 0 -18 5 -18 4 0 7 13 7 28 -1
16 -7 29 -14 29 -8 0 -9 -5 -4 -11z"/>
<path d="M2833 1565 c0 -8 4 -12 9 -9 5 3 6 10 3 15 -9 13 -12 11 -12 -6z"/>
<path d="M1596 1558 c3 -4 11 -5 19 -1 21 7 19 12 -4 10 -11 0 -18 -5 -15 -9z"/>
<path d="M2755 1561 c-6 -11 13 -26 22 -17 4 3 1 6 -6 6 -7 0 -9 5 -6 10 3 6
4 10 1 10 -3 0 -7 -4 -11 -9z"/>
<path d="M1495 1540 c-3 -5 -1 -10 4 -10 6 0 11 5 11 10 0 6 -2 10 -4 10 -3 0
-8 -4 -11 -10z"/>
<path d="M2713 1508 c-2 -18 0 -20 7 -8 12 18 13 30 2 30 -4 0 -9 -10 -9 -22z"/>
<path d="M1551 1493 c7 -12 15 -20 18 -17 3 2 -3 12 -13 22 -17 16 -18 16 -5
-5z"/>
<path d="M2753 1480 c0 -23 3 -28 9 -16 5 9 5 23 0 32 -6 12 -9 7 -9 -16z"/>
<path d="M2785 1500 c-3 -6 1 -7 9 -4 18 7 21 14 7 14 -6 0 -13 -4 -16 -10z"/>
<path d="M2850 1500 c0 -5 5 -10 11 -10 5 0 7 5 4 10 -3 6 -8 10 -11 10 -2 0
-4 -4 -4 -10z"/>
<path d="M1590 1490 c8 -5 20 -10 25 -10 6 0 3 5 -5 10 -8 5 -19 10 -25 10 -5
0 -3 -5 5 -10z"/>
<path d="M2726 1483 c-6 -14 -5 -15 5 -6 7 7 10 15 7 18 -3 3 -9 -2 -12 -12z"/>
<path d="M1356 1447 c3 -10 9 -15 12 -12 3 3 0 11 -7 18 -10 9 -11 8 -5 -6z"/>
<path d="M1590 1451 c0 -5 5 -13 10 -16 6 -3 10 -2 10 4 0 5 -4 13 -10 16 -5
3 -10 2 -10 -4z"/>
<path d="M1490 1436 c4 -4 16 -4 26 2 16 9 14 10 -8 9 -15 -1 -23 -6 -18 -11z"/>
<path d="M2705 1441 c-3 -5 -2 -12 3 -15 5 -3 9 1 9 9 0 17 -3 19 -12 6z"/>
<path d="M1559 1438 c-6 -20 -6 -39 0 -42 4 -3 7 6 7 20 0 20 -4 32 -7 22z"/>
<path d="M1520 1415 c-7 -9 -11 -17 -9 -20 3 -2 10 5 17 15 14 24 10 26 -8 5z"/>
<path d="M1614 1419 c-4 -8 1 -9 17 -4 21 7 22 6 10 -9 -7 -9 -9 -16 -3 -16 8
0 22 22 22 36 0 9 -39 3 -46 -7z"/>
<path d="M2730 1426 c0 -3 9 -10 20 -16 11 -6 20 -8 20 -6 0 3 -9 10 -20 16
-11 6 -20 8 -20 6z"/>
<path d="M2833 1415 c0 -8 4 -12 9 -9 5 3 6 10 3 15 -9 13 -12 11 -12 -6z"/>
<path d="M1480 1400 c-9 -6 -10 -10 -3 -10 6 0 15 5 18 10 8 12 4 12 -15 0z"/>
<path d="M1590 1400 c8 -5 20 -10 25 -10 6 0 3 5 -5 10 -8 5 -19 10 -25 10 -5
0 -3 -5 5 -10z"/>
<path d="M1570 1380 c-9 -6 -10 -10 -3 -10 6 0 15 5 18 10 8 12 4 12 -15 0z"/>
<path d="M2720 1371 c0 -6 4 -13 10 -16 6 -3 7 1 4 9 -7 18 -14 21 -14 7z"/>
<path d="M1436 1358 c3 -5 10 -6 15 -3 13 9 11 12 -6 12 -8 0 -12 -4 -9 -9z"/>
<path d="M1530 1360 c0 -5 3 -9 8 -8 4 1 18 -4 32 -11 l25 -12 -25 20 c-28 23
-40 26 -40 11z"/>
<path d="M1590 1361 c0 -5 5 -13 10 -16 6 -3 10 -2 10 4 0 5 -4 13 -10 16 -5
3 -10 2 -10 -4z"/>
<path d="M2776 1353 c-6 -14 -5 -15 5 -6 7 7 10 15 7 18 -3 3 -9 -2 -12 -12z"/>
<path d="M1435 1320 c-3 -5 -1 -10 4 -10 6 0 11 5 11 10 0 6 -2 10 -4 10 -3 0
-8 -4 -11 -10z"/>
<path d="M1592 1321 c-11 -6 -10 -10 4 -15 9 -3 19 -4 22 -1 3 3 0 5 -7 5 -7
0 -9 5 -6 10 7 12 4 12 -13 1z"/>
<path d="M2699 1323 c-1 -5 -1 -11 -1 -14 1 -4 -10 -10 -24 -13 -14 -4 -22
-11 -19 -16 9 -14 -8 -12 -25 3 -8 6 -11 8 -7 3 4 -5 1 -16 -6 -24 -8 -10 -8
-13 -1 -9 7 4 14 0 18 -8 3 -8 -2 -18 -11 -23 -14 -8 -13 -10 1 -15 10 -4 14
-3 11 2 -3 5 -1 12 4 15 5 4 12 -3 16 -14 7 -23 20 -26 31 -7 4 6 4 9 -1 5 -4
-4 -16 3 -26 16 -20 26 -25 41 -10 31 5 -3 12 3 16 14 3 10 15 21 26 24 12 3
18 10 15 15 -3 6 0 13 6 15 10 4 10 6 1 6 -7 1 -14 -2 -14 -6z"/>
<path d="M2753 1313 c0 -11 7 -20 14 -20 10 0 10 4 1 16 -7 9 -13 18 -15 20
-1 2 -1 -5 0 -16z"/>
<path d="M1511 1294 c6 -7 7 -19 3 -25 -4 -7 -3 -9 4 -5 15 9 11 43 -5 43 -9
0 -10 -4 -2 -13z"/>
<path d="M2715 1290 c-3 -5 -3 -10 2 -10 4 0 2 -4 -6 -9 -17 -11 -25 -48 -12
-55 5 -3 15 2 22 12 13 16 12 16 -4 3 -17 -14 -18 -13 -15 5 1 10 10 24 18 31
8 7 11 13 5 13 -5 0 -3 5 5 10 9 6 10 10 3 10 -6 0 -15 -4 -18 -10z"/>
<path d="M1426 1278 c3 -5 10 -6 15 -3 13 9 11 12 -6 12 -8 0 -12 -4 -9 -9z"/>
<path d="M1574 1278 c-4 -6 -3 -8 4 -4 5 3 13 0 15 -6 3 -8 6 -6 6 5 1 19 -14
23 -25 5z"/>
<path d="M1535 1261 c-8 -14 10 -22 31 -14 12 4 15 3 10 -5 -4 -7 -2 -12 4
-12 7 0 10 6 7 13 -2 6 -14 11 -26 10 -13 -2 -20 1 -16 7 3 6 4 10 1 10 -3 0
-7 -4 -11 -9z"/>
<path d="M2671 1244 c0 -11 3 -14 6 -6 3 7 2 16 -1 19 -3 4 -6 -2 -5 -13z"/>
<path d="M1456 1222 c-3 -4 4 -9 15 -9 23 -2 25 3 4 10 -8 4 -16 3 -19 -1z"/>
<path d="M1513 1223 c4 -3 -1 -16 -10 -27 -10 -12 -11 -16 -4 -9 7 6 19 10 25
9 6 -2 8 -1 4 1 -4 2 -4 11 -1 19 3 8 -1 14 -8 14 -7 0 -9 -3 -6 -7z"/>
<path d="M2727 1209 c-9 -6 -14 -15 -11 -21 5 -8 1 -9 -12 -4 -14 5 -16 4 -7
-5 13 -13 36 -2 27 13 -5 7 -2 9 8 6 9 -4 15 0 15 8 0 8 -1 14 -1 14 -1 0 -9
-5 -19 -11z"/>
<path d="M2826 1198 c3 -5 10 -6 15 -3 13 9 11 12 -6 12 -8 0 -12 -4 -9 -9z"/>
<path d="M1416 1182 c-2 -4 -1 -14 4 -22 7 -11 9 -9 7 8 -1 24 -3 26 -11 14z"/>
<path d="M1553 1168 c1 -14 5 -24 9 -22 4 2 9 0 13 -6 10 -17 29 -11 49 17 11
14 14 23 7 19 -6 -4 -19 -2 -28 6 -10 7 -14 8 -10 1 4 -6 4 -13 0 -16 -5 -2
-2 -2 5 -1 13 4 17 -12 4 -20 -11 -6 -26 5 -39 29 -10 18 -11 17 -10 -7z"/>
<path d="M2674 1173 c4 -7 3 -21 -3 -31 -6 -12 -6 -23 0 -33 9 -12 10 -12 6 1
-2 8 0 23 5 34 7 12 6 22 -3 30 -9 8 -10 8 -5 -1z"/>
<path d="M1490 1161 c0 -6 4 -13 10 -16 6 -3 7 1 4 9 -7 18 -14 21 -14 7z"/>
<path d="M1517 1153 c3 -7 6 -13 8 -13 2 0 5 6 8 13 3 8 -1 14 -8 14 -7 0 -11
-6 -8 -14z"/>
<path d="M2730 1160 c0 -5 9 -8 20 -7 21 1 18 10 -5 13 -8 1 -15 -2 -15 -6z"/>
<path d="M2696 1141 c-3 -5 1 -14 9 -21 8 -7 13 -16 10 -20 -3 -5 -1 -11 4
-14 13 -8 8 19 -7 37 -10 12 -10 16 0 20 9 4 9 6 1 6 -6 1 -14 -3 -17 -8z"/>
<path d="M1435 1120 c3 -5 8 -10 11 -10 2 0 4 5 4 10 0 6 -5 10 -11 10 -5 0
-7 -4 -4 -10z"/>
<path d="M2637 1113 c-4 -3 -7 -11 -7 -17 0 -6 5 -5 12 2 6 6 9 14 7 17 -3 3
-9 2 -12 -2z"/>
<path d="M1515 1100 c-4 -6 1 -7 11 -3 13 5 15 3 9 -7 -5 -9 -4 -11 4 -6 6 4
9 12 6 17 -8 12 -22 12 -30 -1z"/>
<path d="M1547 1077 c-10 -10 -17 -20 -15 -22 6 -6 40 24 37 32 -2 5 -12 0
-22 -10z"/>
<path d="M1493 1075 c0 -7 6 -11 14 -8 7 3 13 6 13 8 0 2 -6 5 -13 8 -8 3 -14
-1 -14 -8z"/>
<path d="M1580 1078 c0 -4 7 -8 16 -8 8 0 13 -4 9 -9 -3 -5 0 -13 7 -17 7 -4
10 -4 6 1 -4 4 -2 15 5 23 9 13 9 14 0 8 -7 -4 -13 -3 -13 2 0 5 -7 9 -15 9
-8 0 -15 -4 -15 -9z"/>
<path d="M2650 1079 c0 -5 -4 -7 -10 -4 -5 3 -10 1 -10 -4 0 -13 3 -13 24 -5
18 7 22 24 6 24 -5 0 -10 -5 -10 -11z"/>
<path d="M2813 1069 c-2 -23 3 -25 10 -4 4 8 3 16 -1 19 -4 3 -9 -4 -9 -15z"/>
<path d="M2710 1060 c0 -5 5 -10 10 -10 6 0 10 5 10 10 0 6 -4 10 -10 10 -5 0
-10 -4 -10 -10z"/>
<path d="M1444 1038 l-19 -23 23 19 c21 18 27 26 19 26 -2 0 -12 -10 -23 -22z"/>
<path d="M2670 1050 c0 -5 9 -14 20 -20 11 -6 20 -9 20 -8 0 2 -9 11 -20 21
-11 9 -20 13 -20 7z"/>
<path d="M1496 1037 c3 -10 9 -15 12 -12 3 3 0 11 -7 18 -10 9 -11 8 -5 -6z"/>
<path d="M2658 1002 c-16 -10 -28 -21 -28 -25 0 -5 14 1 30 13 17 12 30 23 30
26 0 5 0 5 -32 -14z"/>
<path d="M2730 1016 c0 -2 8 -10 18 -17 15 -13 16 -12 3 4 -13 16 -21 21 -21
13z"/>
<path d="M1507 999 c7 -9 10 -19 6 -22 -3 -4 -1 -7 5 -7 17 0 15 16 -5 31 -16
12 -17 12 -6 -2z"/>
<path d="M2707 999 c7 -7 15 -10 18 -7 3 3 -2 9 -12 12 -14 6 -15 5 -6 -5z"/>
<path d="M2795 991 c-3 -5 -2 -12 3 -15 5 -3 9 1 9 9 0 17 -3 19 -12 6z"/>
<path d="M1468 977 c8 -9 10 -22 6 -29 -5 -8 -1 -8 11 2 17 14 18 13 12 -3 -4
-11 -3 -16 3 -12 16 10 11 22 -17 41 -23 14 -26 15 -15 1z"/>
<path d="M1429 963 c-13 -16 -12 -17 4 -4 16 13 21 21 13 21 -2 0 -10 -8 -17
-17z"/>
<path d="M2653 964 c-7 -20 12 -41 22 -23 6 8 4 10 -5 4 -10 -6 -12 -3 -8 13
7 25 0 30 -9 6z"/>
<path d="M2690 970 c-9 -6 -10 -10 -3 -10 6 0 15 5 18 10 8 12 4 12 -15 0z"/>
<path d="M1540 961 c0 -6 5 -13 11 -16 6 -5 4 -12 -8 -20 -15 -12 -16 -16 -4
-27 12 -11 13 -10 7 6 -4 13 -2 17 8 13 8 -3 24 5 37 19 12 13 18 24 12 24 -6
0 -14 -7 -17 -16 -5 -13 -9 -14 -21 -4 -8 7 -12 16 -9 21 3 5 0 9 -5 9 -6 0
-11 -4 -11 -9z"/>
<path d="M1360 940 c-12 -7 -10 -9 7 -7 12 0 19 5 17 9 -6 10 -6 10 -24 -2z"/>
<path d="M1512 930 c-18 -29 -15 -38 4 -12 9 13 14 25 12 27 -2 2 -9 -5 -16
-15z"/>
<path d="M1446 919 c3 -5 9 -7 14 -4 5 3 13 -3 19 -12 6 -10 11 -13 11 -6 0
13 -17 26 -38 29 -6 1 -10 -2 -6 -7z"/>
<path d="M2670 920 c-8 -5 0 -7 18 -7 17 1 29 4 26 6 -8 9 -31 9 -44 1z"/>
<path d="M1556 884 c-15 -14 -26 -27 -24 -29 2 -3 13 3 24 14 11 10 26 20 34
23 8 2 10 7 4 10 -5 4 -22 -5 -38 -18z"/>
<path d="M2630 900 c0 -5 5 -10 10 -10 6 0 10 5 10 10 0 6 -4 10 -10 10 -5 0
-10 -4 -10 -10z"/>
<path d="M1461 885 c9 -11 15 -28 14 -38 -2 -11 -1 -16 3 -13 13 14 9 36 -11
53 -22 18 -22 18 -6 -2z"/>
<path d="M2671 891 c-7 -5 -12 -14 -10 -20 2 -6 10 -2 17 9 14 22 13 23 -7 11z"/>
<path d="M1505 880 c-3 -5 -2 -10 4 -10 5 0 13 5 16 10 3 6 2 10 -4 10 -5 0
-13 -4 -16 -10z"/>
<path d="M1377 855 c-4 -8 -3 -16 1 -19 4 -3 9 4 9 15 2 23 -3 25 -10 4z"/>
<path d="M2634 861 c4 -5 1 -12 -4 -14 -6 -3 -5 -4 2 -3 15 3 23 26 8 26 -6 0
-9 -4 -6 -9z"/>
<path d="M2779 868 c-5 -18 -6 -38 -1 -34 7 8 12 36 6 36 -2 0 -4 -1 -5 -2z"/>
<path d="M1561 851 c-9 -6 -10 -11 -2 -15 6 -4 11 -2 11 4 0 6 5 8 12 4 7 -4
8 -3 4 4 -8 14 -7 14 -25 3z"/>
<path d="M1440 840 c-9 -6 -10 -10 -3 -10 6 0 15 5 18 10 8 12 4 12 -15 0z"/>
<path d="M2655 840 c-3 -5 -1 -10 4 -10 6 0 11 5 11 10 0 6 -2 10 -4 10 -3 0
-8 -4 -11 -10z"/>
<path d="M2715 810 c-4 -6 -10 -8 -14 -6 -4 3 -13 0 -21 -5 -11 -7 -10 -8 8
-6 20 3 56 27 40 27 -4 0 -10 -5 -13 -10z"/>
<path d="M2750 816 c0 -2 8 -10 18 -17 15 -13 16 -12 3 4 -13 16 -21 21 -21
13z"/>
<path d="M1525 800 c3 -6 -2 -10 -12 -11 -10 0 -13 -3 -6 -5 7 -3 20 -1 29 4
15 8 15 9 0 15 -10 4 -15 3 -11 -3z"/>
<path d="M1370 779 c0 -5 5 -7 10 -4 6 3 10 8 10 11 0 2 -4 4 -10 4 -5 0 -10
-5 -10 -11z"/>
<path d="M1456 767 c3 -10 9 -15 12 -12 3 3 0 11 -7 18 -10 9 -11 8 -5 -6z"/>
<path d="M2630 769 c0 -5 -5 -7 -12 -3 -7 4 -8 3 -4 -4 4 -6 13 -9 21 -5 17 6
20 23 5 23 -5 0 -10 -5 -10 -11z"/>
<path d="M1490 755 c0 -8 2 -15 4 -15 2 0 6 7 10 15 3 8 1 15 -4 15 -6 0 -10
-7 -10 -15z"/>
<path d="M2559 754 c-13 -16 -12 -16 8 -6 19 10 24 9 32 -7 6 -10 7 -21 4 -25
-3 -3 -1 -6 6 -6 7 0 9 -5 5 -12 -4 -7 -3 -8 5 -4 9 6 7 16 -6 39 -22 37 -36
43 -54 21z"/>
<path d="M1461 724 c0 -11 3 -14 6 -6 3 7 2 16 -1 19 -3 4 -6 -2 -5 -13z"/>
<path d="M2576 725 c4 -8 8 -15 10 -15 2 0 4 7 4 15 0 8 -4 15 -10 15 -5 0 -7
-7 -4 -15z"/>
<path d="M2659 713 c-13 -15 -12 -15 9 -4 23 12 28 21 13 21 -5 0 -15 -7 -22
-17z"/>
<path d="M2554 690 c-2 -32 2 -35 24 -21 11 7 11 9 -2 14 -9 4 -13 13 -10 22
3 8 2 15 -3 15 -4 0 -9 -13 -9 -30z"/>
<path d="M1476 693 c-6 -14 -5 -15 5 -6 7 7 10 15 7 18 -3 3 -9 -2 -12 -12z"/>
<path d="M1395 681 c-3 -5 -2 -12 3 -15 5 -3 9 1 9 9 0 17 -3 19 -12 6z"/>
<path d="M1504 676 c-3 -8 -13 -12 -22 -9 -15 4 -15 3 -2 -6 11 -8 18 -6 28 7
11 15 14 15 23 2 9 -12 10 -12 7 -1 -6 21 -27 25 -34 7z"/>
<path d="M2608 673 c6 -2 9 -10 6 -15 -4 -7 -2 -8 5 -4 13 9 5 26 -12 25 -9 0
-8 -2 1 -6z"/>
<path d="M1436 647 c2 -11 9 -25 15 -31 9 -8 9 -6 1 10 -7 14 -8 24 -1 31 6 6
5 10 -5 10 -9 0 -13 -8 -10 -20z"/>
<path d="M2639 663 c-6 -36 -4 -50 7 -50 10 0 11 4 4 12 -6 7 -8 20 -4 29 3 9
3 16 0 16 -3 0 -7 -3 -7 -7z"/>
<path d="M2590 651 c0 -7 -4 -9 -10 -6 -5 3 -7 0 -4 -9 4 -11 0 -13 -15 -9
-12 3 -21 1 -21 -4 0 -16 42 -7 52 11 5 10 7 20 4 23 -3 4 -6 1 -6 -6z"/>
<path d="M1480 619 c-13 -9 -13 -10 2 -6 9 3 19 -1 22 -9 6 -17 26 -19 26 -2
0 6 -3 8 -7 5 -3 -4 -11 0 -17 8 -8 11 -15 12 -26 4z"/>
<path d="M2736 622 c-3 -4 4 -9 15 -9 23 -2 25 3 4 10 -8 4 -16 3 -19 -1z"/>
<path d="M1347 599 c7 -7 15 -10 18 -7 3 3 -2 9 -12 12 -14 6 -15 5 -6 -5z"/>
<path d="M2590 595 c0 -8 4 -15 8 -15 5 0 9 7 9 15 0 8 -4 15 -9 15 -4 0 -8
-7 -8 -15z"/>
<path d="M2540 596 c0 -2 7 -6 15 -10 8 -3 15 -1 15 4 0 6 -7 10 -15 10 -8 0
-15 -2 -15 -4z"/>
<path d="M1495 566 c1 -14 5 -29 10 -33 4 -5 5 -3 2 4 -4 6 -2 13 3 15 7 2 6
10 -3 21 -12 17 -13 16 -12 -7z"/>
<path d="M2690 580 c0 -5 5 -10 11 -10 5 0 7 5 4 10 -3 6 -8 10 -11 10 -2 0
-4 -4 -4 -10z"/>
<path d="M1394 560 c0 -13 4 -16 10 -10 7 7 7 13 0 20 -6 6 -10 3 -10 -10z"/>
<path d="M1534 557 c2 -15 0 -27 -5 -27 -6 0 -7 -4 -4 -10 3 -5 10 -10 14 -10
10 0 7 58 -3 68 -4 3 -5 -6 -2 -21z"/>
<path d="M1360 560 c-9 -6 -10 -10 -3 -10 6 0 15 5 18 10 8 12 4 12 -15 0z"/>
<path d="M2630 563 c0 -6 8 -17 18 -24 16 -13 16 -13 2 6 -8 11 -16 22 -17 24
-2 2 -3 0 -3 -6z"/>
<path d="M2719 553 c-13 -16 -12 -17 4 -4 16 13 21 21 13 21 -2 0 -10 -8 -17
-17z"/>
<path d="M1482 524 c10 -10 20 -16 22 -13 3 3 -5 11 -17 18 -21 13 -21 12 -5
-5z"/>
<path d="M2590 529 c0 -5 5 -7 10 -4 6 3 10 8 10 11 0 2 -4 4 -10 4 -5 0 -10
-5 -10 -11z"/>
<path d="M2550 522 c0 -6 9 -12 20 -15 11 -3 20 -3 20 -1 0 2 -9 8 -20 14 -11
6 -20 7 -20 2z"/>
<path d="M2630 496 c7 -7 13 -7 20 0 6 6 3 10 -10 10 -13 0 -16 -4 -10 -10z"/>
<path d="M2675 500 c-3 -5 -1 -10 4 -10 6 0 11 5 11 10 0 6 -2 10 -4 10 -3 0
-8 -4 -11 -10z"/>
<path d="M1455 480 c3 -5 8 -10 11 -10 2 0 4 5 4 10 0 6 -5 10 -11 10 -5 0 -7
-4 -4 -10z"/>
<path d="M2595 480 c3 -5 8 -10 11 -10 2 0 4 5 4 10 0 6 -5 10 -11 10 -5 0 -7
-4 -4 -10z"/>
<path d="M1500 466 c0 -2 9 -6 20 -9 11 -3 20 -1 20 4 0 5 -9 9 -20 9 -11 0
-20 -2 -20 -4z"/>
<path d="M1434 438 c-4 -7 -4 -10 1 -6 4 4 15 2 24 -5 14 -11 14 -10 2 6 -16
20 -18 21 -27 5z"/>
<path d="M2556 441 c-3 -4 6 -7 19 -7 14 0 22 2 19 5 -8 8 -34 10 -38 2z"/>
<path d="M1426 401 c-3 -4 6 -7 19 -7 14 0 22 2 19 5 -8 8 -34 10 -38 2z"/>
<path d="M2547 375 c3 -8 9 -12 14 -9 12 7 11 11 -5 17 -10 4 -13 1 -9 -8z"/>
<path d="M1470 361 c0 -6 4 -13 10 -16 6 -3 7 1 4 9 -7 18 -14 21 -14 7z"/>
<path d="M2531 354 c0 -11 3 -14 6 -6 3 7 2 16 -1 19 -3 4 -6 -2 -5 -13z"/>
<path d="M2615 360 c-3 -5 -1 -10 4 -10 6 0 11 5 11 10 0 6 -2 10 -4 10 -3 0
-8 -4 -11 -10z"/>
<path d="M2536 322 c-3 -5 1 -9 9 -9 8 0 12 4 9 9 -3 4 -7 8 -9 8 -2 0 -6 -4
-9 -8z"/>
<path d="M2570 300 c0 -5 5 -10 11 -10 5 0 7 5 4 10 -3 6 -8 10 -11 10 -2 0
-4 -4 -4 -10z"/>
<path d="M1406 282 c-3 -5 1 -9 9 -9 8 0 12 4 9 9 -3 4 -7 8 -9 8 -2 0 -6 -4
-9 -8z"/>
<path d="M1455 260 c-3 -5 -1 -10 4 -10 6 0 11 5 11 10 0 6 -2 10 -4 10 -3 0
-8 -4 -11 -10z"/>
<path d="M2507 259 c7 -7 15 -10 18 -7 3 3 -2 9 -12 12 -14 6 -15 5 -6 -5z"/>
<path d="M1474 209 c-3 -6 -2 -15 3 -20 5 -5 9 -1 9 11 0 23 -2 24 -12 9z"/>
<path d="M1507 193 c-10 -9 -9 -23 1 -23 5 0 9 7 9 15 0 17 -1 18 -10 8z"/>
<path d="M1740 129 c0 -5 -4 -7 -10 -4 -14 9 -12 -1 3 -13 10 -8 13 -6 14 9 1
10 0 19 -3 19 -2 0 -4 -5 -4 -11z"/>
<path d="M1961 135 c0 -5 3 -16 8 -23 7 -11 9 -10 14 3 4 9 3 14 -2 10 -5 -3
-12 1 -14 7 -3 7 -6 9 -6 3z"/>
<path d="M2070 129 c0 -5 5 -7 10 -4 6 3 10 8 10 11 0 2 -4 4 -10 4 -5 0 -10
-5 -10 -11z"/>
<path d="M2105 121 c5 -18 4 -22 -5 -16 -8 5 -11 4 -6 -3 4 -6 13 -9 22 -5 14
5 13 9 -14 43 -3 3 -1 -6 3 -19z"/>
<path d="M2253 123 c1 -21 2 -21 19 -6 21 19 24 31 4 14 -11 -9 -15 -9 -19 1
-3 7 -4 3 -4 -9z"/>
<path d="M1910 120 c8 -5 20 -10 25 -10 6 0 3 5 -5 10 -8 5 -19 10 -25 10 -5
0 -3 -5 5 -10z"/>
<path d="M2206 121 c-3 -5 1 -11 9 -14 9 -4 12 -1 8 9 -6 16 -10 17 -17 5z"/>
<path d="M1613 105 c0 -8 4 -12 9 -9 5 3 6 10 3 15 -9 13 -12 11 -12 -6z"/>
<path d="M1995 109 c-11 -16 -1 -19 13 -3 7 8 8 14 3 14 -5 0 -13 -5 -16 -11z"/>
<path d="M1570 106 c0 -2 7 -7 16 -10 8 -3 12 -2 9 4 -6 10 -25 14 -25 6z"/>
<path d="M1780 100 c-8 -5 -10 -10 -5 -10 6 0 17 5 25 10 8 5 11 10 5 10 -5 0
-17 -5 -25 -10z"/>
<path d="M2033 103 c4 -3 -1 -16 -10 -27 -10 -12 -11 -16 -4 -9 11 10 17 9 28
-5 13 -16 13 -15 5 3 -5 11 -7 26 -5 33 3 6 -1 12 -8 12 -7 0 -9 -3 -6 -7z"/>
<path d="M2188 99 c6 -9 9 -18 6 -22 -3 -3 1 -4 10 -3 8 1 18 5 21 9 3 4 2 5
-2 2 -3 -3 -16 3 -27 12 -15 14 -18 14 -8 2z"/>
<path d="M1795 81 c-3 -5 -2 -12 3 -15 5 -3 9 1 9 9 0 17 -3 19 -12 6z"/>
<path d="M1885 80 c-3 -6 1 -7 9 -4 18 7 21 14 7 14 -6 0 -13 -4 -16 -10z"/>
<path d="M1954 82 c4 -3 14 -7 22 -8 9 -1 13 0 10 4 -4 3 -14 7 -22 8 -9 1
-13 0 -10 -4z"/>
<path d="M2068 72 c4 -10 7 -12 10 -4 2 7 9 9 15 5 7 -3 8 -2 4 2 -14 16 -36
14 -29 -3z"/>
<path d="M1695 60 c3 -5 8 -10 11 -10 2 0 4 5 4 10 0 6 -5 10 -11 10 -5 0 -7
-4 -4 -10z"/>
<path d="M1825 60 c-3 -6 1 -7 9 -4 18 7 21 14 7 14 -6 0 -13 -4 -16 -10z"/>
<path d="M1871 53 c7 -12 15 -20 18 -17 3 2 -3 12 -13 22 -17 16 -18 16 -5 -5z"/>
<path d="M1909 57 c6 -8 7 -18 3 -22 -4 -5 -1 -5 6 -1 10 6 10 11 1 22 -6 8
-14 14 -16 14 -3 0 0 -6 6 -13z"/>
<path d="M2295 60 c3 -5 8 -10 11 -10 2 0 4 5 4 10 0 6 -5 10 -11 10 -5 0 -7
-4 -4 -10z"/>
<path d="M1971 47 c-8 -10 -7 -14 2 -14 8 0 14 6 14 14 0 7 -1 13 -2 13 -2 0
-8 -6 -14 -13z"/>
<path d="M2135 40 c2 -27 10 -33 12 -10 1 11 -2 22 -6 24 -4 3 -7 -4 -6 -14z"/>
<path d="M2013 33 c0 -9 4 -10 14 -2 7 6 13 12 13 14 0 1 -6 2 -13 2 -8 0 -14
-6 -14 -14z"/>
<path d="M1775 20 c3 -5 8 -10 11 -10 2 0 4 5 4 10 0 6 -5 10 -11 10 -5 0 -7
-4 -4 -10z"/>
<path d="M1947 19 c7 -7 15 -10 18 -7 3 3 -2 9 -12 12 -14 6 -15 5 -6 -5z"/>
<path d="M2210 19 c0 -5 5 -7 10 -4 6 3 10 8 10 11 0 2 -4 4 -10 4 -5 0 -10
-5 -10 -11z"/>
<path d="M2256 18 c3 -4 11 -5 19 -1 21 7 19 12 -4 10 -11 0 -18 -5 -15 -9z"/>
</g>
</svg>
